<?xml version="1.0" encoding="utf-8"?>
<!-- Generator: Adobe Illustrator 21.1.0, SVG Export Plug-In . SVG Version: 6.00 Build 0)  -->
<svg version="1.1" id="Layer_1" xmlns="http://www.w3.org/2000/svg" xmlns:xlink="http://www.w3.org/1999/xlink" x="0px" y="0px"
	 viewBox="0 0 1260.5 1260.5" style="enable-background:new 0 0 1260.5 1260.5;" xml:space="preserve">
<style type="text/css">
	.st0{fill:#fff;}
	.st1{fill:#fff;}
	.st2{fill:#fff;}
	.st3{fill:#fff;}
	.st4{fill:#fff;}
	.st5{fill:#fff;}
	.st6{fill:#fff;}
	.st7{fill:#fff;}
</style>
<g>
	<g>
		<path class="st0" d="M681.6,674.4c-4.3,0.2-8.7-1.7-13.1-3.6c-8.8-3.8-13.4-10-15.9-16.4c-0.3-6.4-0.7-12.8,3.3-19.5
			c5.8-13.2,22.7-18.3,35.9-10.4c6.5,1.8,11.1,8,13.6,14.3s0.8,15-1.1,21.5C698.4,667.1,690.2,673.9,681.6,674.4z M680,642.3
			c-2.1,0.1-4.3,0.2-6.3,2.5c0.1,2.1,0.1,2.1,0.2,4.3c0,0,2.2,2,2.2,2c2.2,2,6.4-0.3,6.3-2.5c2-2.2-0.2-4.3-0.2-4.3
			S682.1,642.2,680,642.3C680,642.3,680,642.3,680,642.3z"/>
	</g>
	<g>
		<path class="st1" d="M662,407c-4.1,0.2-8.2-1.6-12.4-3.4c-14.5-5.4-19.4-21.4-11.9-33.9c5.6-10.4,21.5-17.3,34-9.9
			c12.5,5.5,17.3,21.5,9.9,34C678,402.2,670.1,406.6,662,407z M660.4,376.7c0,0-4.1,0.2-3.9,2.2c-1.8,4.2-1.7,6.2,0.4,8.1
			c0,0,4.2,1.8,6-2.3c1.9-2.1,1.7-6.2-0.4-8.1C660.4,376.7,660.4,376.7,660.4,376.7z"/>
	</g>
	<g>
		<path class="st2" d="M726.7,457c-5.1,0.3-10.3-2-15.5-4.3c-15.7-9.4-21.7-26.9-14.9-42.5s26.9-21.7,42.5-14.9s21.7,26.9,14.9,42.5
			C749.3,450.8,739.4,456.4,726.7,457z M724.8,419c0,0-5.1,0.3-4.9,2.8c-2.4,2.7,0.4,7.6,3.1,10c2.7,2.4,7.6-0.4,7.5-2.9
			c2.4-2.7-0.4-7.6-2.9-7.5C727.3,418.9,727.3,418.9,724.8,419z"/>
	</g>
	<g>
		<path class="st3" d="M570.6,450.5c-2.1,0.1-5.3-0.8-6.4-1.8c-3.3-1.9-5.5-3.9-6.7-8.1c-1.2-3.1-0.4-7.4,0.5-10.6
			c2.8-6.5,11.1-9,17.6-5.1c6.5,2.8,9,11.1,6.2,17.6C579.9,447.9,575.8,450.2,570.6,450.5z M569.8,434.7c-1.1,0.1-2.1,0.1-2,1.2
			c-1,1.1,0.1,2.1,0.1,2.1c0.1,1.1,1.1,1,1.2,2c1.1,1,3.2-0.2,3.1-1.2c1-1.1-0.2-3.2-1.3-4.1C570.8,434.7,570.8,434.7,569.8,434.7z"
			/>
	</g>
	<g>
		<path class="st2" d="M626.5,300.7c-2.1,0.1-4.3-0.8-6.4-1.8c-3.3-1.9-5.5-3.9-6.7-8.1c-1.2-3.1-0.4-7.4,0.5-10.6
			c2.8-6.5,11.1-9,17.6-5.1c3.3,1.9,5.5,3.9,6.7,7s0.4,7.4-0.5,10.6C634.8,298.2,630.7,300.5,626.5,300.7z M625.7,285
			c-1.1,0.1-2.1,0.1-2,1.2c-1,1.1,0.1,2.1,0.1,2.1s0.1,1.1,1.2,2s3.2-0.2,4.1-1.3c-0.1-1.1-0.1-1.1-0.1-2.1c0,0-0.1-1.1-1.1-1
			C626.8,284.9,625.7,285,625.7,285z"/>
	</g>
	<g>
		<path class="st2" d="M607.1,352.2c-2.1,0.1-4.3-0.8-6.4-1.8c-3.3-1.9-5.5-3.9-6.7-8.1c-1.2-3.1-0.4-7.4,0.5-10.6
			c2.8-6.5,11.1-9,17.6-5.1c3.3,1.9,5.5,3.9,6.7,7c1.2,3.1,0.4,7.4-0.5,10.6C615.4,349.7,611.3,352,607.1,352.2z M606.3,336.4
			c-1.1,0.1-2.1,0.1-2,1.2c-1,1.1,0.1,2.1,0.1,2.1s0.1,1.1,1.2,2c1.1,1,3.2-0.2,4.1-1.3c-0.1-1.1-0.1-1.1-0.1-2.1c0,0-0.1-1.1-1.1-1
			C607.4,336.4,606.3,336.4,606.3,336.4z"/>
	</g>
	<g>
		<path class="st4" d="M661.7,343.4c-3.2,0.2-6.4-1.3-9.7-2.7c-4.9-2.9-8.4-7.5-10.2-12.2c-1.8-4.7-0.6-11.1,0.9-14.4
			c4.3-9.8,16.8-13.6,26.6-9.3c9.9,5.9,13.6,16.8,9.3,26.6C675.9,339.5,669.7,343,661.7,343.4z M660.5,319.6c0,0-1.6,0.1-3.1,1.8
			c-1.5,1.7-1.4,3.3,0.2,3.2c0.1,1.6,1.7,1.5,1.8,3.1c1.6-0.1,4.8-0.2,4.7-1.8c1.5-1.7-0.2-4.8-1.9-6.3
			C662.1,319.5,662.1,319.5,660.5,319.6z"/>
	</g>
	<g>
		<path class="st4" d="M591.1,278.8c-1.3,0.1-2.6-0.5-3.8-1.1c-2-1.2-3.3-3-4-4.8c-0.7-1.9-0.2-4.4,0.3-5.7
			c1.7-3.9,6.7-5.4,10.5-3.7c3.9,2.3,5.4,6.7,3.7,10.5C596.7,277.3,594.2,278.7,591.1,278.8z M590.6,269.4c0,0-0.6,0-1.2,0.7
			c-0.6,0.7-0.6,1.3,0.1,1.3c0,0.6,0.7,0.6,0.7,1.2c0.6,0,1.9-0.1,1.9-0.7c0.6-0.7-0.1-1.9-0.8-2.5
			C591.2,269.4,591.2,269.4,590.6,269.4z"/>
	</g>
	<g>
		<path class="st0" d="M587.4,257.7c-0.7,0-1.4-0.3-2.1-0.6c-1.1-0.6-1.8-1.7-2.2-2.7s-0.1-2.5,0.2-3.2c0.9-2.2,3.7-3,5.9-2.1
			c2.2,1.3,3,3.7,2.1,5.9C590.5,256.8,589.2,257.6,587.4,257.7z M587.2,252.5c0,0-0.4,0-0.7,0.4s-0.3,0.7,0,0.7
			c0,0.4,0.4,0.3,0.4,0.7c0.4,0,1.1-0.1,1-0.4c0.3-0.4-0.1-1.1-0.4-1.4C587.5,252.4,587.5,252.4,587.2,252.5z"/>
	</g>
	<g>
		<path class="st0" d="M600.5,309.3c-1.1,0.6-2.5,0.6-4,0.7c-2.3-0.2-4.3-1.3-5.8-2.7s-2.1-3.9-2.1-5.3c-0.1-4.3,3.8-7.8,8-7.9
			c4.6,0.4,7.8,3.8,7.9,8C605,305.4,603.3,307.8,600.5,309.3z M596,300.9c0,0-0.6,0.3-0.8,1.2c-0.3,0.9,0,1.4,0.6,1.1
			c0.3,0.6,0.9,0.3,1.2,0.8c0.6-0.3,1.7-0.9,1.4-1.5c0.3-0.9-0.9-1.7-1.8-1.9C596.6,300.6,596.6,300.6,596,300.9z"/>
	</g>
	<g>
		<path class="st1" d="M611.7,274.3c-1,0.5-2.2,0.6-3.4,0.6c-2-0.2-3.7-1.1-5-2.3s-1.8-3.4-1.8-4.6c-0.1-3.7,3.3-6.7,6.9-6.8
			c3.9,0.4,6.7,3.3,6.8,6.9C615.6,271,614.2,273,611.7,274.3z M607.9,267.1c0,0-0.5,0.3-0.7,1c-0.2,0.7,0,1.2,0.5,1
			c0.3,0.5,0.7,0.2,1,0.7c0.5-0.3,1.5-0.8,1.2-1.3c0.2-0.7-0.8-1.5-1.5-1.7C608.3,266.8,608.3,266.8,607.9,267.1z"/>
	</g>
	<g>
		<path class="st1" d="M600.3,277.3c0.8,0.2,1.4,0.7,2.1,1.3c1,1,1.5,2.3,1.6,3.5c0.1,1.2-0.6,2.7-1.1,3.3c-1.6,2-4.9,2.1-6.9,0.4
			c-1.9-2-2.1-4.9-0.4-6.9C596.7,277.3,598.4,276.9,600.3,277.3z M599,283c0,0,0.4,0.1,0.8-0.2c0.5-0.3,0.5-0.7,0.2-0.8
			c0.1-0.4-0.3-0.5-0.2-0.8c-0.4-0.1-1.1-0.3-1.2,0.1c-0.5,0.3-0.3,1.1,0,1.6C598.7,282.9,598.7,282.9,599,283z"/>
	</g>
	<g>
		<path class="st4" d="M626,323.1c-1.2,0.5-2.6,0.4-4,0.3c-2.2-0.5-4.1-1.7-5.4-3.3c-1.3-1.5-1.7-4.1-1.6-5.5c0.3-4.2,4.5-7.3,8.8-7
			c4.5,0.9,7.3,4.5,7,8.8C630.8,319.8,628.9,321.9,626,323.1z M622.4,314.3c0,0-0.6,0.2-0.9,1.1c-0.3,0.8-0.1,1.4,0.5,1.2
			c0.2,0.6,0.8,0.3,1.1,0.9c0.6-0.2,1.8-0.7,1.5-1.3c0.3-0.8-0.7-1.8-1.5-2.1C623,314,623,314,622.4,314.3z"/>
	</g>
	<g>
		<path class="st5" d="M595.4,400.8c-3.3,0.2-6.6-1.3-9.9-2.8c-6.7-2.9-10.2-7.6-12.1-12.4c-0.2-4.9-0.5-9.8,2.5-14.8
			c4.4-10,17.2-13.9,27.3-7.9c5,1.4,8.5,6.1,10.3,10.9s0.6,11.4-0.8,16.4C608.2,395.3,601.9,400.5,595.4,400.8z M594.2,376.4
			c-1.6,0.1-3.3,0.2-4.8,1.9c0.1,1.6,0.1,1.6,0.2,3.3c0,0,1.7,1.5,1.7,1.5c1.7,1.5,4.9-0.2,4.8-1.9c1.5-1.7-0.2-3.3-0.2-3.3
			S595.8,376.3,594.2,376.4C594.2,376.4,594.2,376.4,594.2,376.4z"/>
	</g>
	<g>
		<path class="st5" d="M497.3,629.9c-5.4,0.3-11-2.2-16.5-4.6c-11.1-4.9-16.9-12.7-20-20.7c-0.4-8.1-0.8-16.2,4.2-24.6
			c7.3-16.6,28.7-23.1,45.4-13.2c8.3,2.3,14.1,10.1,17.2,18.1c3.1,8,1,18.9-1.3,27.2C518.5,620.7,508.1,629.4,497.3,629.9z
			 M495.2,589.4c-2.7,0.1-5.4,0.3-8,3.1c0.1,2.7,0.1,2.7,0.3,5.4c0,0,2.8,2.6,2.8,2.6c2.8,2.6,8.1-0.4,8-3.1
			c2.6-2.8-0.3-5.4-0.3-5.4S497.9,589.2,495.2,589.4C495.2,589.4,495.2,589.4,495.2,589.4z"/>
	</g>
	<g>
		<path class="st5" d="M642.2,530.4c0.5-3,2.5-5.7,4.5-8.4c4-5.5,8.9-7.7,13.6-8.4c4.5,0.7,8.9,1.5,12.9,5.2
			c8.2,5.9,9.2,18.3,1.8,26.3c-2.2,4.2-7.2,6.4-11.9,7.2s-10.4-1.7-14.6-4C644.7,543,641.3,536.3,642.2,530.4z M664.5,534.1
			c0.2-1.5,0.5-3-0.7-4.7c-1.5-0.2-1.5-0.2-3-0.5c0,0-1.7,1.2-1.7,1.2c-1.7,1.2-0.7,4.5,0.7,4.7c1.2,1.7,3,0.5,3,0.5
			S664.3,535.6,664.5,534.1C664.5,534.1,664.5,534.1,664.5,534.1z"/>
	</g>
	<g>
		<g>
			<path class="st0" d="M539.9,494.5c1.8-10.9,7.6-18.8,17-21.7c7.2-3.3,13.8-2.2,22.1,1.4c6.2,3.3,12,8.7,15.2,15.9
				c4.7,11.9-2.9,30.8-14.8,35.5c-7.2,3.3-13.8,2.2-22.1-1.4c-6.2-3.3-12-8.7-15.2-15.9C540.6,503.5,539.2,498.8,539.9,494.5z
				 M572.5,499.9l0.4-2.2c0.4-2.2-1.8-2.5-4-2.9c-2.2-0.4-2.2-0.4-4.3-0.7c-2.2-0.4-2.9,4-3.3,6.2s1.8,2.5,4,2.9
				c0,0,2.2,0.4,4.3,0.7C572.1,502.1,572.1,502.1,572.5,499.9z"/>
		</g>
		<g>
			<path class="st0" d="M622,447.8c1.8-10.9,7.6-18.8,17-21.7c6.9-1.1,13.8-2.2,22.1,1.4c6.2,3.3,12,8.7,15.2,15.9
				c4.4,14.1-2.9,30.8-17,35.1c-7.2,3.3-13.8,2.2-19.9-1.1c-8.7-1.4-14.1-9-15.6-13.7C620.2,458.7,621.3,452.2,622,447.8z
				 M654.6,453.2l0.4-2.2c-1.8-2.5-1.8-2.5-4-2.9c0,0-2.2-0.4-4.3-0.7c-2.5,1.8-5.1,3.6-3.6,8.3c-0.4,2.2,1.8,2.5,4,2.9
				c0,0,2.2,0.4,4.3,0.7C653.8,457.6,654.2,455.4,654.6,453.2z"/>
		</g>
	</g>
	<g>
		<path class="st4" d="M410.4,636c-2.4-2.1-3.8-5.4-5.1-8.7c-1.5-5.5-0.8-11.2,1.1-15.9s7.3-8.4,10.6-9.8
			c9.9-4.1,21.6,1.9,25.7,11.7c3,11.1-1.9,21.6-11.7,25.7C423.3,643,416.4,641.2,410.4,636z M426,617.9c0,0-1.2-1-3.4-0.9
			c-2.2,0.2-3.3,1.4-2.1,2.4c-1,1.2,0.2,2.2-0.9,3.4c1.2,1,3.6,3.1,4.7,1.9c2.2-0.2,3.1-3.6,3-5.9C427.2,619,427.2,619,426,617.9z"
			/>
	</g>
	<g>
		<path class="st4" d="M492.3,538c-2.4-2.1-3.8-5.4-5.1-8.7c-1.5-5.5-0.8-11.2,1.1-15.9c1.9-4.7,7.3-8.4,10.6-9.8
			c9.9-4.1,21.6,1.9,25.7,11.7c3,11.1-1.9,21.6-11.7,25.7C505.2,545,498.3,543.2,492.3,538z M508,520c0,0-1.2-1-3.4-0.9
			c-2.2,0.2-3.3,1.4-2.1,2.4c-1,1.2,0.2,2.2-0.9,3.4c1.2,1,3.6,3.1,4.7,1.9c2.2-0.2,3.1-3.6,3-5.9C509.2,521,509.2,521,508,520z"/>
	</g>
	<g>
		<path class="st4" d="M674.1,740.4c-3.1-2.7-4.9-7-6.7-11.3c-2-7.2-1-14.6,1.5-20.6s9.5-10.9,13.8-12.7c12.8-5.3,28,2.4,33.3,15.2
			c3.9,14.4-2.4,28-15.2,33.3C690.9,749.5,681.9,747.2,674.1,740.4z M694.5,717c0,0-1.6-1.4-4.5-1.2c-2.9,0.2-4.3,1.8-2.7,3.1
			c-1.4,1.6,0.2,2.9-1.2,4.5c1.6,1.4,4.7,4.1,6,2.5c2.9-0.2,4.1-4.7,3.9-7.6C696,718.3,696,718.3,694.5,717z"/>
	</g>
	<g>
		<path class="st6" d="M624.7,592c-0.4,13.8-6.2,24.6-17.3,29.8c-8.4,5.3-16.7,5.1-24.8,2.1c-8.2-3-16.3-8.7-21.6-17.1
			c-10.5-19.6-1.7-38.6,15-46.4c8.4-5.3,16.7-5.1,24.8-2.1c8.2,3,16.3,8.7,21.6,17.1C625,581,624.9,586.5,624.7,592z M583.5,590.9
			l-0.1,2.8c0,0,2.7,2.8,5.4,2.9c0,0,2.8,0.1,5.5,0.2c2.8,0.1,5.7-5.4,3-8.2c0.1-2.8-2.7-2.8-5.4-2.9c0,0-2.8-0.1-5.5-0.2
			C583.5,588.1,583.5,590.9,583.5,590.9z"/>
	</g>
	<g>
		<path class="st7" d="M760.5,513.5c-3.1,0.2-6.3-1.2-9.4-2.6c-4.8-2.9-8.1-7.3-9.9-11.9c-1.8-4.6-0.5-10.8,0.8-14
			c4.2-9.5,16.4-13.2,25.9-9.1c9.6,5.7,13.2,16.4,9.1,25.9C774.3,509.7,768.3,513.1,760.5,513.5z M759.4,490.4c0,0-1.5,0.1-3,1.7
			c-1.5,1.6-1.4,3.2,0.2,3.1c0.1,1.5,1.6,1.5,1.7,3c1.5-0.1,4.6-0.2,4.6-1.8c1.5-1.6-0.2-4.6-1.9-6.1
			C760.9,490.3,760.9,490.3,759.4,490.4z"/>
	</g>
	<g>
		<path class="st7" d="M664.8,607c-3.1,0.2-6.3-1.2-9.4-2.6c-4.8-2.9-8.1-7.3-9.9-11.9c-1.8-4.6-0.5-10.8,0.8-14
			c4.2-9.5,16.4-13.2,25.9-9.1c9.6,5.7,13.2,16.4,9.1,25.9C678.6,603.3,672.6,606.7,664.8,607z M663.7,583.9c0,0-1.5,0.1-3,1.7
			c-1.5,1.6-1.4,3.2,0.2,3.1c0.1,1.5,1.6,1.5,1.7,3c1.5-0.1,4.6-0.2,4.6-1.8c1.5-1.6-0.2-4.6-1.9-6.1
			C665.2,583.8,665.2,583.8,663.7,583.9z"/>
	</g>
	<g>
		<path class="st2" d="M749.7,611.4c-4.3,0.2-8.8-1.7-13.3-3.7c-6.7-4-11.4-10.3-13.9-16.7c-2.5-6.4-0.8-15.2,1.2-19.7
			c5.9-13.4,23-18.6,36.4-12.7c13.5,8,18.6,23,12.7,36.4C769.1,606.1,760.6,610.9,749.7,611.4z M748.1,578.8c0,0-2.2,0.1-4.2,2.4
			c-2.1,2.3-2,4.5,0.2,4.3c0.1,2.2,2.3,2.1,2.4,4.2c2.2-0.1,6.5-0.3,6.4-2.5c2.1-2.3-0.3-6.5-2.6-8.6
			C750.2,578.7,750.2,578.7,748.1,578.8z"/>
	</g>
	<g>
		<path class="st2" d="M614.2,538.6c-1.2-0.3-2.3-1.3-3.3-2.3c-1.5-1.7-2.2-3.9-2.3-5.9c-0.1-2,1.2-4.3,2.2-5.3
			c2.9-3.1,8.1-3,11.2-0.1c3,3.5,3,8.1,0.1,11.2C620.1,538.9,617.3,539.5,614.2,538.6z M616.8,529.4c0,0-0.6-0.2-1.4,0.3
			s-1,1-0.3,1.2c-0.2,0.6,0.4,0.8,0.3,1.4c0.6,0.2,1.8,0.5,2-0.1c0.8-0.4,0.5-1.8,0.1-2.6C617.4,529.6,617.4,529.6,616.8,529.4z"/>
	</g>
	<g>
		<path class="st4" d="M538.5,560c-1.2-0.3-2.3-1.3-3.3-2.3c-1.5-1.7-2.2-3.9-2.3-5.9c-0.1-2,1.2-4.3,2.2-5.3
			c2.9-3.1,8.1-3,11.2-0.1c3,3.5,3,8.1,0.1,11.2C544.3,560.3,541.6,560.9,538.5,560z M541.1,550.8c0,0-0.6-0.2-1.4,0.3
			c-0.8,0.4-1,1-0.3,1.2c-0.2,0.6,0.4,0.8,0.3,1.4c0.6,0.2,1.8,0.5,2-0.1c0.8-0.4,0.5-1.8,0.1-2.6C541.7,551,541.7,551,541.1,550.8z
			"/>
	</g>
	<g>
		<path class="st4" d="M625.3,649c-1.2-0.3-2.3-1.3-3.3-2.3c-1.5-1.7-2.2-3.9-2.3-5.9c-0.1-2,1.2-4.3,2.2-5.3
			c2.9-3.1,8.1-3,11.2-0.1c3,3.5,3,8.1,0.1,11.2C631.2,649.3,628.4,649.9,625.3,649z M627.9,639.8c0,0-0.6-0.2-1.4,0.3
			c-0.8,0.4-1,1-0.3,1.2c-0.2,0.6,0.4,0.8,0.3,1.4c0.6,0.2,1.8,0.5,2-0.1c0.8-0.4,0.5-1.8,0.1-2.6C628.5,640,628.5,640,627.9,639.8z
			"/>
	</g>
	<g>
		<path class="st4" d="M718.3,542.4c-3.1,0.2-6.3-1.2-9.4-2.6c-4.8-2.9-8.1-7.3-9.9-11.9c-1.8-4.6-0.5-10.8,0.8-14
			c4.2-9.5,16.4-13.2,25.9-9.1c9.6,5.7,13.2,16.4,9.1,25.9C732,538.6,726,542,718.3,542.4z M717.1,519.2c0,0-1.5,0.1-3,1.7
			c-1.5,1.6-1.4,3.2,0.2,3.1c0.1,1.5,1.6,1.5,1.7,3c1.5-0.1,4.6-0.2,4.6-1.8c1.5-1.6-0.2-4.6-1.9-6.1
			C718.6,519.2,718.6,519.2,717.1,519.2z"/>
	</g>
	<g>
		<path class="st7" d="M400.2,703.3c-3.8,0.2-7.8-1.5-11.7-3.3c-6-3.5-10.1-9.1-12.3-14.8c-2.2-5.7-0.7-13.4,1-17.4
			c5.2-11.8,20.3-16.4,32.1-11.3c11.9,7.1,16.4,20.3,11.3,32.1C417.3,698.5,409.8,702.8,400.2,703.3z M398.7,674.5
			c0,0-1.9,0.1-3.7,2.1c-1.8,2-1.7,3.9,0.2,3.8c0.1,1.9,2,1.8,2.1,3.7c1.9-0.1,5.8-0.3,5.7-2.2c1.8-2-0.3-5.8-2.3-7.6
			C400.6,674.4,400.6,674.4,398.7,674.5z"/>
	</g>
	<g>
		<path class="st7" d="M409.5,849.6c-4.6,0.2-9.4-1.8-14.1-3.9c-7.2-4.3-12.2-11-14.8-17.8c-2.7-6.8-0.8-16.2,1.3-20.9
			c6.2-14.2,24.5-19.8,38.7-13.6c14.4,8.5,19.8,24.5,13.6,38.7C430.1,844,421.1,849.1,409.5,849.6z M407.7,814.9
			c0,0-2.3,0.1-4.5,2.5c-2.2,2.4-2.1,4.7,0.2,4.6c0.1,2.3,2.4,2.2,2.5,4.5c2.3-0.1,6.9-0.4,6.8-2.7c2.2-2.4-0.4-6.9-2.8-9.1
			C410,814.8,410,814.8,407.7,814.9z"/>
	</g>
	<g>
		<path class="st5" d="M547.3,761.2c-7.2,0.4-14.7-2.9-22.1-6.1c-14.8-6.5-22.6-17-26.8-27.6c-0.6-10.8-1.1-21.7,5.6-32.9
			c9.7-22.3,38.3-31,60.7-17.6c11,3.1,18.8,13.5,23,24.2c4.2,10.7,1.3,25.3-1.8,36.3C575.7,748.9,561.7,760.5,547.3,761.2z
			 M544.5,707c-3.6,0.2-7.2,0.4-10.7,4.2c0.2,3.6,0.2,3.6,0.4,7.2c0,0,3.8,3.4,3.8,3.4c3.8,3.4,10.8-0.6,10.7-4.2
			c3.4-3.8-0.4-7.2-0.4-7.2S548.1,706.8,544.5,707C544.5,707,544.5,707,544.5,707z"/>
	</g>
	<g>
		<path class="st7" d="M556.7,878.5c-5.4,0.3-11-2.2-16.5-4.6c-8.4-5-14.2-12.9-17.4-20.9s-1-19,1.5-24.5
			c7.3-16.7,28.7-23.2,45.4-15.9c16.8,10,23.2,28.7,15.9,45.4C580.9,871.9,570.3,877.8,556.7,878.5z M554.7,837.9c0,0-2.7,0.1-5.3,3
			c-2.6,2.8-2.4,5.6,0.3,5.4c0.1,2.7,2.8,2.6,3,5.3c2.7-0.1,8.1-0.4,8-3.1c2.6-2.8-0.4-8.1-3.3-10.7
			C557.4,837.7,557.4,837.7,554.7,837.9z"/>
	</g>
	<g>
		<path class="st0" d="M445,771c-3.2,0.2-6.6-1.3-9.9-2.7c-6.6-2.9-10.1-7.6-12-12.4c-0.2-4.9-0.5-9.7,2.5-14.7
			c4.4-10,17.2-13.9,27.2-7.9c4.9,1.4,8.4,6.1,10.3,10.8c1.9,4.8,0.6,11.3-0.8,16.3C457.7,765.5,451.5,770.7,445,771z M443.8,746.7
			c-1.6,0.1-3.2,0.2-4.8,1.9c0.1,1.6,0.1,1.6,0.2,3.2c0,0,1.7,1.5,1.7,1.5c1.7,1.5,4.9-0.2,4.8-1.9c1.5-1.7-0.2-3.2-0.2-3.2
			S445.4,746.6,443.8,746.7C443.8,746.7,443.8,746.7,443.8,746.7z"/>
	</g>
	<g>
		<path class="st5" d="M465.5,922.5c-3.2,0.2-6.6-1.3-9.9-2.7c-6.6-2.9-10.1-7.6-12-12.4c-0.2-4.9-0.5-9.7,2.5-14.7
			c4.4-10,17.2-13.9,27.2-7.9c4.9,1.4,8.4,6.1,10.3,10.8c1.9,4.8,0.6,11.3-0.8,16.3C478.3,917,472,922.2,465.5,922.5z M464.3,898.2
			c-1.6,0.1-3.2,0.2-4.8,1.9c0.1,1.6,0.1,1.6,0.2,3.2c0,0,1.7,1.5,1.7,1.5c1.7,1.5,4.9-0.2,4.8-1.9c1.5-1.7-0.2-3.2-0.2-3.2
			S465.9,898.1,464.3,898.2C464.3,898.2,464.3,898.2,464.3,898.2z"/>
	</g>
	<g>
		<path class="st5" d="M486.9,853.9c-4.3,0.2-8.8-1.7-13.2-3.7c-8.9-3.9-13.5-10.2-16-16.5c-0.3-6.5-0.7-13,3.3-19.7
			c5.8-13.3,22.9-18.5,36.4-10.5c6.6,1.8,11.3,8.1,13.8,14.5c2.5,6.4,0.8,15.2-1.1,21.8C503.8,846.5,495.5,853.4,486.9,853.9z
			 M485.2,821.4c-2.2,0.1-4.3,0.2-6.4,2.5c0.1,2.2,0.1,2.2,0.2,4.3c0,0,2.3,2.1,2.3,2.1c2.3,2.1,6.5-0.3,6.4-2.5
			c2.1-2.3-0.2-4.3-0.2-4.3S487.4,821.3,485.2,821.4C485.2,821.4,485.2,821.4,485.2,821.4z"/>
	</g>
	<g>
		<path class="st0" d="M477.6,680.3c-2.4-0.7-4.4-2.5-6.4-4.4c-2.9-3.4-4.2-7.6-4.4-11.5c-0.2-3.9,2.3-8.3,4.2-10.3
			c5.5-6.1,15.7-5.8,21.8-0.2c5.8,6.7,5.8,15.7,0.2,21.8C488.9,681,483.5,682,477.6,680.3z M482.6,662.6c0,0-1.2-0.3-2.7,0.5
			s-1.8,2-0.7,2.4c-0.3,1.2,0.8,1.5,0.5,2.7c1.2,0.3,3.5,1,3.9-0.2c1.5-0.8,1-3.5,0.2-5.1C483.8,662.9,483.8,662.9,482.6,662.6z"/>
	</g>
	<g>
		<path class="st4" d="M549.1,660.8c-3.1,0.2-6.3-1.2-9.4-2.6c-4.8-2.9-8.1-7.3-9.9-11.9c-1.8-4.6-0.5-10.8,0.8-14
			c4.2-9.5,16.4-13.2,25.9-9.1c9.6,5.7,13.2,16.4,9.1,25.9C562.8,657,556.8,660.4,549.1,660.8z M547.9,637.6c0,0-1.5,0.1-3,1.7
			c-1.5,1.6-1.4,3.2,0.2,3.1c0.1,1.5,1.6,1.5,1.7,3c1.5-0.1,4.6-0.2,4.6-1.8c1.5-1.6-0.2-4.6-1.9-6.1
			C549.4,637.5,549.4,637.5,547.9,637.6z"/>
	</g>
	<g>
		<path class="st7" d="M636.7,825.2c-4,0.2-8.1-1.6-12.3-3.4c-6.2-3.7-10.6-9.5-12.9-15.5s-0.7-14.1,1.1-18.2
			c5.4-12.4,21.3-17.2,33.7-11.8c12.5,7.4,17.2,21.3,11.8,33.7C654.6,820.2,646.8,824.7,636.7,825.2z M635.2,795c0,0-2,0.1-3.9,2.2
			c-1.9,2.1-1.8,4.1,0.2,4c0.1,2,2.1,1.9,2.2,3.9c2-0.1,6-0.3,5.9-2.3c1.9-2.1-0.3-6-2.4-7.9C637.2,794.9,637.2,794.9,635.2,795z"/>
	</g>
	<g>
		<path class="st7" d="M620.9,717.1c-3.4,0.2-6.9-1.4-10.5-2.9c-5.3-3.2-9-8.1-11-13.2c-2-5.1-0.6-12,0.9-15.5
			c4.6-10.5,18.2-14.7,28.7-10.1c10.6,6.3,14.7,18.2,10.1,28.7C636.1,712.9,629.4,716.7,620.9,717.1z M619.6,691.4
			c0,0-1.7,0.1-3.3,1.9c-1.6,1.8-1.5,3.5,0.2,3.4c0.1,1.7,1.8,1.6,1.9,3.3c1.7-0.1,5.1-0.3,5.1-2c1.6-1.8-0.3-5.1-2.1-6.8
			C621.3,691.3,621.3,691.3,619.6,691.4z"/>
	</g>
	<g>
		<path class="st7" d="M696.5,494.2c-2,0.1-4.1-0.8-6.1-1.7c-3.1-1.9-5.3-4.8-6.4-7.7c-1.2-3-0.4-7,0.5-9.1
			c2.7-6.2,10.7-8.6,16.9-5.9c6.2,3.7,8.6,10.7,5.9,16.9C705.5,491.8,701.5,494,696.5,494.2z M695.7,479.1c0,0-1,0.1-2,1.1
			c-1,1.1-0.9,2.1,0.1,2c0.1,1,1.1,1,1.1,2c1-0.1,3-0.2,3-1.2c1-1.1-0.2-3-1.2-4C696.7,479.1,696.7,479.1,695.7,479.1z"/>
	</g>
	<g>
		<path class="st7" d="M603.8,481.5c-2,0.1-4.1-0.8-6.1-1.7c-3.1-1.9-5.3-4.8-6.4-7.7c-1.2-3-0.4-7,0.5-9.1
			c2.7-6.2,10.7-8.6,16.9-5.9c6.2,3.7,8.6,10.7,5.9,16.9C612.7,479,608.8,481.2,603.8,481.5z M603,466.4c0,0-1,0.1-2,1.1
			c-1,1.1-0.9,2.1,0.1,2c0.1,1,1.1,1,1.1,2c1-0.1,3-0.2,3-1.2c1-1.1-0.2-3-1.2-4C604,466.3,604,466.3,603,466.4z"/>
	</g>
	<g>
		<path class="st7" d="M580,792.2c-2,0.1-4.1-0.8-6.1-1.7c-3.1-1.9-5.3-4.8-6.4-7.7c-1.2-3-0.4-7,0.5-9.1c2.7-6.2,10.7-8.6,16.9-5.9
			c6.2,3.7,8.6,10.7,5.9,16.9C589,789.7,585,791.9,580,792.2z M579.2,777.1c0,0-1,0.1-2,1.1c-1,1.1-0.9,2.1,0.1,2c0.1,1,1.1,1,1.1,2
			c1-0.1,3-0.2,3-1.2c1-1.1-0.2-3-1.2-4C580.2,777,580.2,777,579.2,777.1z"/>
	</g>
	<g>
		<path class="st7" d="M504.8,951.9c-2,0.1-4.1-0.8-6.1-1.7c-3.1-1.9-5.3-4.8-6.4-7.7s-0.4-7,0.5-9.1c2.7-6.2,10.7-8.6,16.9-5.9
			c6.2,3.7,8.6,10.7,5.9,16.9C513.7,949.4,509.8,951.7,504.8,951.9z M504,936.8c0,0-1,0.1-2,1.1c-1,1.1-0.9,2.1,0.1,2
			c0.1,1,1.1,1,1.1,2c1-0.1,3-0.2,3-1.2c1-1.1-0.2-3-1.2-4C505,936.8,505,936.8,504,936.8z"/>
	</g>
	<g>
		<path class="st7" d="M608.6,907.4c-2.5,0.1-5.1-1-7.7-2.1c-3.9-2.3-6.6-6-8-9.7c-1.4-3.7-0.4-8.8,0.7-11.4
			c3.4-7.7,13.3-10.8,21-7.4c7.8,4.6,10.8,13.3,7.4,21C619.8,904.3,614.9,907.1,608.6,907.4z M607.6,888.6c0,0-1.3,0.1-2.4,1.4
			s-1.1,2.6,0.1,2.5c0.1,1.3,1.3,1.2,1.4,2.4c1.3-0.1,3.8-0.2,3.7-1.4c1.2-1.3-0.2-3.8-1.5-5C608.9,888.5,608.9,888.5,607.6,888.6z"
			/>
	</g>
	<g>
		<path class="st7" d="M548,974.9c-2.8,0.1-5.7-1.1-8.6-2.4c-4.4-2.6-7.4-6.7-9-10.8c-1.6-4.1-0.5-9.8,0.8-12.7
			c3.8-8.7,14.9-12,23.6-8.3c8.7,5.2,12,14.9,8.3,23.6C560.5,971.4,555,974.5,548,974.9z M546.9,953.8c0,0-1.4,0.1-2.7,1.5
			c-1.3,1.5-1.3,2.9,0.1,2.8c0.1,1.4,1.5,1.3,1.5,2.7c1.4-0.1,4.2-0.2,4.1-1.6c1.3-1.5-0.2-4.2-1.7-5.6
			C548.3,953.7,548.3,953.7,546.9,953.8z"/>
	</g>
	<g>
		<path class="st7" d="M530.8,913.2c-1.4,0.1-2.9-0.6-4.4-1.2c-2.2-1.3-3.8-3.4-4.6-5.5s-0.3-5,0.4-6.5c1.9-4.4,7.6-6.1,12-4.2
			c4.4,2.6,6.1,7.6,4.2,12C537.2,911.4,534.4,913,530.8,913.2z M530.3,902.5c0,0-0.7,0-1.4,0.8c-0.7,0.8-0.6,1.5,0.1,1.4
			c0,0.7,0.8,0.7,0.8,1.4c0.7,0,2.1-0.1,2.1-0.8c0.7-0.8-0.1-2.1-0.9-2.8C531,902.4,531,902.4,530.3,902.5z"/>
	</g>
	<g>
		<path class="st7" d="M608.4,964.7c-2,0.1-4.1-0.8-6.1-1.7c-3.1-1.9-5.3-4.8-6.4-7.7c-1.2-3-0.4-7,0.5-9.1
			c2.7-6.2,10.7-8.6,16.9-5.9c6.2,3.7,8.6,10.7,5.9,16.9C617.4,962.2,613.4,964.4,608.4,964.7z M607.6,949.6c0,0-1,0.1-2,1.1
			c-1,1.1-0.9,2.1,0.1,2c0.1,1,1.1,1,1.1,2c1-0.1,3-0.2,3-1.2c1-1.1-0.2-3-1.2-4C608.6,949.6,608.6,949.6,607.6,949.6z"/>
	</g>
	<g>
		<path class="st7" d="M372.2,763.5c-2,0.1-4.1-0.8-6.1-1.7c-3.1-1.9-5.3-4.8-6.4-7.7c-1.2-3-0.4-7,0.5-9.1
			c2.7-6.2,10.7-8.6,16.9-5.9c6.2,3.7,8.6,10.7,5.9,16.9C381.2,761,377.2,763.2,372.2,763.5z M371.4,748.4c0,0-1,0.1-2,1.1
			c-1,1.1-0.9,2.1,0.1,2c0.1,1,1.1,1,1.1,2c1-0.1,3-0.2,3-1.2c1-1.1-0.2-3-1.2-4C372.4,748.4,372.4,748.4,371.4,748.4z"/>
	</g>
	<g>
		<path class="st7" d="M418,732.6c-2,0.1-4.1-0.8-6.1-1.7c-3.1-1.9-5.3-4.8-6.4-7.7s-0.4-7,0.5-9.1c2.7-6.2,10.7-8.6,16.9-5.9
			c6.2,3.7,8.6,10.7,5.9,16.9C427,730.1,423.1,732.3,418,732.6z M417.3,717.5c0,0-1,0.1-2,1.1c-1,1.1-0.9,2.1,0.1,2
			c0.1,1,1.1,1,1.1,2c1-0.1,3-0.2,3-1.2c1-1.1-0.2-3-1.2-4C418.3,717.5,418.3,717.5,417.3,717.5z"/>
	</g>
	<g>
		<path class="st0" d="M642.4,746.3c-1.2-0.3-2.3-1.3-3.3-2.3c-1.5-1.7-2.2-3.9-2.3-5.9c-0.1-2,1.2-4.3,2.2-5.3
			c2.9-3.1,8.1-3,11.2-0.1c3,3.5,3,8.1,0.1,11.2C648.3,746.6,645.5,747.1,642.4,746.3z M645,737.1c0,0-0.6-0.2-1.4,0.3
			c-0.8,0.4-1,1-0.3,1.2c-0.2,0.6,0.4,0.8,0.3,1.4c0.6,0.2,1.8,0.5,2-0.1c0.8-0.4,0.5-1.8,0.1-2.6
			C645.6,737.3,645.6,737.3,645,737.1z"/>
	</g>
	<g>
		<path class="st2" d="M750.3,645.8c-1.2-0.3-2.3-1.3-3.3-2.3c-1.5-1.7-2.2-3.9-2.3-5.9c-0.1-2,1.2-4.3,2.2-5.3
			c2.9-3.1,8.1-3,11.2-0.1c3,3.5,3,8.1,0.1,11.2C756.1,646.1,753.3,646.6,750.3,645.8z M752.8,636.6c0,0-0.6-0.2-1.4,0.3
			c-0.8,0.4-1,1-0.3,1.2c-0.2,0.6,0.4,0.8,0.3,1.4c0.6,0.2,1.8,0.5,2-0.1c0.8-0.4,0.5-1.8,0.1-2.6
			C753.4,636.8,753.4,636.8,752.8,636.6z"/>
	</g>
	<g>
		<path class="st2" d="M728.7,696.9c-1.2-0.3-2.3-1.3-3.3-2.3c-1.5-1.7-2.2-3.9-2.3-5.9c-0.1-2,1.2-4.3,2.2-5.3
			c2.9-3.1,8.1-3,11.2-0.1c3,3.5,3,8.1,0.1,11.2C734.6,697.2,731.8,697.7,728.7,696.9z M731.3,687.7c0,0-0.6-0.2-1.4,0.3
			c-0.8,0.4-1,1-0.3,1.2c-0.2,0.6,0.4,0.8,0.3,1.4c0.6,0.2,1.8,0.5,2-0.1c0.8-0.4,0.5-1.8,0.1-2.6
			C731.9,687.9,731.9,687.9,731.3,687.7z"/>
	</g>
	<g>
		<path class="st6" d="M581.1,938.9c-2.5,0.1-5.1-1-7.7-2.1c-3.9-2.3-6.5-4.7-8.1-9.7c-1.5-3.7-0.4-8.8,0.6-12.6
			c3.4-7.7,13.3-10.8,21.1-6.1c3.9,2.3,6.5,4.7,8,8.4c1.5,3.7,0.4,8.8-0.6,12.6C591.1,935.9,586.2,938.6,581.1,938.9z M580.2,920
			c-1.3,0.1-2.5,0.1-2.5,1.4c-1.2,1.3,0.1,2.5,0.1,2.5s0.1,1.3,1.4,2.5c1.3,1.2,3.8-0.2,5-1.5c-0.1-1.3-0.1-1.3-0.1-2.5
			c0,0-0.1-1.3-1.3-1.2C581.4,920,580.2,920,580.2,920z"/>
	</g>
	<g>
		<path class="st7" d="M577.3,988.7c-1.4,0.1-2.9-0.6-4.4-1.2c-2.2-1.3-3.8-3.4-4.6-5.5s-0.3-5,0.4-6.5c1.9-4.4,7.6-6.1,12-4.2
			c4.4,2.6,6.1,7.6,4.2,12C583.7,986.9,580.9,988.5,577.3,988.7z M576.7,978c0,0-0.7,0-1.4,0.8c-0.7,0.8-0.6,1.5,0.1,1.4
			c0,0.7,0.8,0.7,0.8,1.4c0.7,0,2.1-0.1,2.1-0.8c0.7-0.8-0.1-2.1-0.9-2.8C577.5,977.9,577.5,977.9,576.7,978z"/>
	</g>
	<g>
		<path class="st7" d="M619.6,1005.1c-1.4,0.1-2.9-0.6-4.4-1.2c-2.2-1.3-3.8-3.4-4.6-5.5c-0.8-2.1-0.3-5,0.4-6.5
			c1.9-4.4,7.6-6.1,12-4.2c4.4,2.6,6.1,7.6,4.2,12C626,1003.3,623.2,1004.9,619.6,1005.1z M619,994.3c0,0-0.7,0-1.4,0.8
			s-0.6,1.5,0.1,1.4c0,0.7,0.8,0.7,0.8,1.4c0.7,0,2.1-0.1,2.1-0.8c0.7-0.8-0.1-2.1-0.9-2.8C619.8,994.3,619.8,994.3,619,994.3z"/>
	</g>
	<g>
		<path class="st0" d="M497.2,782.4c-1.2-0.3-2.3-1.3-3.3-2.3c-1.5-1.7-2.2-3.9-2.3-5.9s1.2-4.3,2.2-5.3c2.9-3.1,8.1-3,11.2-0.1
			c3,3.5,3,8.1,0.1,11.2C503.1,782.8,500.3,783.3,497.2,782.4z M499.8,773.3c0,0-0.6-0.2-1.4,0.3c-0.8,0.4-1,1-0.3,1.2
			c-0.2,0.6,0.4,0.8,0.3,1.4c0.6,0.2,1.8,0.5,2-0.1c0.8-0.4,0.5-1.8,0.1-2.6C500.4,773.4,500.4,773.4,499.8,773.3z"/>
	</g>
	<g>
		<path class="st2" d="M697.4,572.1c-1.2-0.3-2.3-1.3-3.3-2.3c-1.5-1.7-2.2-3.9-2.3-5.9c-0.1-2,1.2-4.3,2.2-5.3
			c2.9-3.1,8.1-3,11.2-0.1c3,3.5,3,8.1,0.1,11.2C703.3,572.4,700.5,572.9,697.4,572.1z M700,562.9c0,0-0.6-0.2-1.4,0.3
			c-0.8,0.4-1,1-0.3,1.2c-0.2,0.6,0.4,0.8,0.3,1.4c0.6,0.2,1.8,0.5,2-0.1c0.8-0.4,0.5-1.8,0.1-2.6
			C700.6,563.1,700.6,563.1,700,562.9z"/>
	</g>
	<g>
		<path class="st3" d="M607.9,982c-1.2,0.1-2.4-0.5-3.6-1c-1.8-1.1-3.1-2.8-3.8-4.5s-0.2-4.1,0.3-5.3c1.6-3.6,6.2-5,9.8-3.4
			c3.6,2.2,5,6.2,3.4,9.8C613.1,980.6,610.8,981.9,607.9,982z M607.4,973.2c0,0-0.6,0-1.1,0.6c-0.6,0.6-0.5,1.2,0.1,1.2
			c0,0.6,0.6,0.6,0.6,1.1c0.6,0,1.8-0.1,1.7-0.7c0.6-0.6-0.1-1.8-0.7-2.3C608,973.2,608,973.2,607.4,973.2z"/>
	</g>
	<g>
		<path class="st6" d="M578.9,959.4c-1.2,0.1-2.4-0.5-3.6-1c-1.8-1.1-3.1-2.8-3.8-4.5c-0.7-1.7-0.2-4.1,0.3-5.3
			c1.6-3.6,6.2-5,9.8-3.4c3.6,2.2,5,6.2,3.4,9.8C584.1,957.9,581.8,959.2,578.9,959.4z M578.4,950.6c0,0-0.6,0-1.1,0.6
			c-0.6,0.6-0.5,1.2,0.1,1.2c0,0.6,0.6,0.6,0.6,1.1c0.6,0,1.8-0.1,1.7-0.7c0.6-0.6-0.1-1.8-0.7-2.3C579,950.5,579,950.5,578.4,950.6
			z"/>
	</g>
	<g>
		<path class="st6" d="M504.5,885.6c-1.2,0.1-2.4-0.5-3.6-1c-1.8-1.1-3.1-2.8-3.8-4.5c-0.7-1.7-0.2-4.1,0.3-5.3
			c1.6-3.6,6.2-5,9.8-3.4c3.6,2.2,5,6.2,3.4,9.8C509.7,884.2,507.4,885.5,504.5,885.6z M504.1,876.8c0,0-0.6,0-1.1,0.6
			c-0.6,0.6-0.5,1.2,0.1,1.2c0,0.6,0.6,0.6,0.6,1.1c0.6,0,1.8-0.1,1.7-0.7c0.6-0.6-0.1-1.8-0.7-2.3
			C504.6,876.8,504.6,876.8,504.1,876.8z"/>
	</g>
	<g>
		<path class="st2" d="M707.1,364.4c-1.2-0.3-2.3-1.3-3.3-2.3c-1.5-1.7-2.2-3.9-2.3-5.9c-0.1-2,1.2-4.3,2.2-5.3
			c2.9-3.1,8.1-3,11.2-0.1c3,3.5,3,8.1,0.1,11.2C712.9,364.7,710.1,365.3,707.1,364.4z M709.7,355.3c0,0-0.6-0.2-1.4,0.3
			c-0.8,0.4-1,1-0.3,1.2c-0.2,0.6,0.4,0.8,0.3,1.4c0.6,0.2,1.8,0.5,2-0.1c0.8-0.4,0.5-1.8,0.1-2.6
			C710.3,355.4,710.3,355.4,709.7,355.3z"/>
	</g>
	<g>
		<path class="st3" d="M598.5,987.3c0.8,0.2,1.4,0.7,2.1,1.3c1,1,1.5,2.3,1.6,3.5c0.1,1.2-0.6,2.7-1.1,3.3c-1.6,2-4.9,2.1-6.9,0.4
			c-1.9-2-2.1-4.9-0.4-6.9C594.9,987.3,596.6,986.9,598.5,987.3z M597.2,993c0,0,0.4,0.1,0.8-0.2c0.5-0.3,0.5-0.7,0.2-0.8
			c0.1-0.4-0.3-0.5-0.2-0.8c-0.4-0.1-1.1-0.3-1.2,0.1c-0.5,0.3-0.3,1.1,0,1.6C596.8,992.9,596.8,992.9,597.2,993z"/>
	</g>
	<g>
		<path class="st3" d="M591.7,961.2c0.8,0.2,1.4,0.7,2.1,1.3c1,1,1.5,2.3,1.6,3.5c0.1,1.2-0.6,2.7-1.1,3.3c-1.6,2-4.9,2.1-6.9,0.4
			c-1.9-2-2.1-4.9-0.4-6.9C588.1,961.2,589.8,960.8,591.7,961.2z M590.4,966.9c0,0,0.4,0.1,0.8-0.2c0.5-0.3,0.5-0.7,0.2-0.8
			c0.1-0.4-0.3-0.5-0.2-0.8c-0.4-0.1-1.1-0.3-1.2,0.1c-0.5,0.3-0.3,1.1,0,1.6C590,966.8,590,966.8,590.4,966.9z"/>
	</g>
	<g>
		<path class="st6" d="M615.3,919.1c0.8,0.2,1.4,0.7,2.1,1.3c1,1,1.5,2.3,1.6,3.5c0.1,1.2-0.6,2.7-1.1,3.3c-1.6,2-4.9,2.1-6.9,0.4
			c-1.9-2-2.1-4.9-0.4-6.9C611.7,919.1,613.4,918.6,615.3,919.1z M614,924.7c0,0,0.4,0.1,0.8-0.2c0.5-0.3,0.5-0.7,0.2-0.8
			c0.1-0.4-0.3-0.5-0.2-0.8c-0.4-0.1-1.1-0.3-1.2,0.1c-0.5,0.3-0.3,1.1,0,1.6C613.6,924.7,613.6,924.7,614,924.7z"/>
	</g>
	<g>
		<path class="st6" d="M543.4,921.6c0.8,0.2,1.4,0.7,2.1,1.3c1,1,1.5,2.3,1.6,3.5c0.1,1.2-0.6,2.7-1.1,3.3c-1.6,2-4.9,2.1-6.9,0.4
			c-1.9-2-2.1-4.9-0.4-6.9C539.8,921.6,541.5,921.1,543.4,921.6z M542.1,927.2c0,0,0.4,0.1,0.8-0.2c0.5-0.3,0.5-0.7,0.2-0.8
			c0.1-0.4-0.3-0.5-0.2-0.8c-0.4-0.1-1.1-0.3-1.2,0.1c-0.5,0.3-0.3,1.1,0,1.6C541.7,927.2,541.7,927.2,542.1,927.2z"/>
	</g>
	<g>
		<path class="st5" d="M786,825.2c-4.3,0.2-8.7-1.7-13.1-3.6c-8.8-3.8-13.4-10-15.9-16.4c-0.3-6.4-0.7-12.8,3.3-19.5
			c5.8-13.2,22.7-18.3,35.9-10.4c6.5,1.8,11.1,8,13.6,14.3s0.8,15-1.1,21.5C802.8,817.9,794.6,824.7,786,825.2z M784.4,793.1
			c-2.1,0.1-4.3,0.2-6.3,2.5c0.1,2.1,0.1,2.1,0.2,4.3c0,0,2.2,2,2.2,2c2.2,2,6.4-0.3,6.3-2.5c2-2.2-0.2-4.3-0.2-4.3
			S786.5,793,784.4,793.1C784.4,793.1,784.4,793.1,784.4,793.1z"/>
	</g>
	<g>
		<path class="st0" d="M787.5,891.2c-3.1-2.7-4.9-7-6.7-11.3c-2-7.2-1-14.6,1.5-20.6c2.5-6,9.5-10.9,13.8-12.7
			c12.8-5.3,28,2.4,33.3,15.2c3.9,14.4-2.4,28-15.2,33.3C804.3,900.3,795.3,898,787.5,891.2z M807.9,867.8c0,0-1.6-1.4-4.5-1.2
			c-2.9,0.2-4.3,1.8-2.7,3.1c-1.4,1.6,0.2,2.9-1.2,4.5c1.6,1.4,4.7,4.1,6,2.5c2.9-0.2,4.1-4.7,3.9-7.6
			C809.4,869.1,809.4,869.1,807.9,867.8z"/>
	</g>
	<g>
		<path class="st7" d="M801.4,752c-3.1,0.2-6.3-1.2-9.4-2.6c-4.8-2.9-8.1-7.3-9.9-11.9c-1.8-4.6-0.5-10.8,0.8-14
			c4.2-9.5,16.4-13.2,25.9-9.1c9.6,5.7,13.2,16.4,9.1,25.9C815.2,748.2,809.1,751.6,801.4,752z M800.2,728.9c0,0-1.5,0.1-3,1.7
			c-1.5,1.6-1.4,3.2,0.2,3.1c0.1,1.5,1.6,1.5,1.7,3c1.5-0.1,4.6-0.2,4.6-1.8c1.5-1.6-0.2-4.6-1.9-6.1
			C801.8,728.8,801.8,728.8,800.2,728.9z"/>
	</g>
	<g>
		<path class="st7" d="M870.6,776.2c-4.3,0.2-8.8-1.7-13.3-3.7c-6.7-4-11.4-10.3-13.9-16.7c-2.5-6.4-0.8-15.2,1.2-19.7
			c5.9-13.4,23-18.6,36.4-12.7c13.5,8,18.6,23,12.7,36.4C890,770.9,881.5,775.7,870.6,776.2z M869,743.6c0,0-2.2,0.1-4.2,2.4
			c-2.1,2.3-2,4.5,0.2,4.3c0.1,2.2,2.3,2.1,2.4,4.2c2.2-0.1,6.5-0.3,6.4-2.5c2.1-2.3-0.3-6.5-2.6-8.6
			C871.2,743.5,871.2,743.5,869,743.6z"/>
	</g>
	<g>
		<path class="st6" d="M740.7,808.1c-1.2-0.3-2.3-1.3-3.3-2.3c-1.5-1.7-2.2-3.9-2.3-5.9s1.2-4.3,2.2-5.3c2.9-3.1,8.1-3,11.2-0.1
			c3,3.5,3,8.1,0.1,11.2C746.6,808.4,743.8,809,740.7,808.1z M743.3,798.9c0,0-0.6-0.2-1.4,0.3c-0.8,0.4-1,1-0.3,1.2
			c-0.2,0.6,0.4,0.8,0.3,1.4c0.6,0.2,1.8,0.5,2-0.1c0.8-0.4,0.5-1.8,0.1-2.6C743.9,799.1,743.9,799.1,743.3,798.9z"/>
	</g>
	<g>
		<path class="st7" d="M738.3,869.9c-3.4,0.2-6.9-1.4-10.5-2.9c-5.3-3.2-9-8.1-11-13.2c-2-5.1-0.6-12,0.9-15.5
			c4.6-10.5,18.2-14.7,28.7-10.1c10.6,6.3,14.7,18.2,10.1,28.7C753.5,865.7,746.8,869.5,738.3,869.9z M737,844.2
			c0,0-1.7,0.1-3.3,1.9c-1.6,1.8-1.5,3.5,0.2,3.4c0.1,1.7,1.8,1.6,1.9,3.3c1.7-0.1,5.1-0.3,5.1-2c1.6-1.8-0.3-5.1-2.1-6.8
			C738.7,844.1,738.7,844.1,737,844.2z"/>
	</g>
	<g>
		<path class="st6" d="M759.8,899.1c-1.2-0.3-2.3-1.3-3.3-2.3c-1.5-1.7-2.2-3.9-2.3-5.9c-0.1-2,1.2-4.3,2.2-5.3
			c2.9-3.1,8.1-3,11.2-0.1c3,3.5,3,8.1,0.1,11.2C765.7,899.4,762.9,899.9,759.8,899.1z M762.4,889.9c0,0-0.6-0.2-1.4,0.3
			c-0.8,0.4-1,1-0.3,1.2c-0.2,0.6,0.4,0.8,0.3,1.4c0.6,0.2,1.8,0.5,2-0.1c0.8-0.4,0.5-1.8,0.1-2.6C763,890.1,763,890.1,762.4,889.9z
			"/>
	</g>
	<g>
		<path class="st1" d="M846.1,849.7c-1.2-0.3-2.3-1.3-3.3-2.3c-1.5-1.7-2.2-3.9-2.3-5.9c-0.1-2,1.2-4.3,2.2-5.3
			c2.9-3.1,8.1-3,11.2-0.1c3,3.5,3,8.1,0.1,11.2C852,850,849.2,850.6,846.1,849.7z M848.7,840.5c0,0-0.6-0.2-1.4,0.3
			c-0.8,0.4-1,1-0.3,1.2c-0.2,0.6,0.4,0.8,0.3,1.4c0.6,0.2,1.8,0.5,2-0.1c0.8-0.4,0.5-1.8,0.1-2.6
			C849.3,840.7,849.3,840.7,848.7,840.5z"/>
	</g>
	<g>
		<path class="st3" d="M860.9,830.2c-1.2-0.3-2.3-1.3-3.3-2.3c-1.5-1.7-2.2-3.9-2.3-5.9c-0.1-2,1.2-4.3,2.2-5.3
			c2.9-3.1,8.1-3,11.2-0.1c3,3.5,3,8.1,0.1,11.2C866.8,830.5,864,831,860.9,830.2z M863.5,821c0,0-0.6-0.2-1.4,0.3
			c-0.8,0.4-1,1-0.3,1.2c-0.2,0.6,0.4,0.8,0.3,1.4c0.6,0.2,1.8,0.5,2-0.1c0.8-0.4,0.5-1.8,0.1-2.6
			C864.1,821.2,864.1,821.2,863.5,821z"/>
	</g>
	<g>
		<path class="st6" d="M685,901.2c-1.2-0.3-2.3-1.3-3.3-2.3c-1.5-1.7-2.2-3.9-2.3-5.9c-0.1-2,1.2-4.3,2.2-5.3
			c2.9-3.1,8.1-3,11.2-0.1c3,3.5,3,8.1,0.1,11.2C690.9,901.5,688.1,902.1,685,901.2z M687.6,892c0,0-0.6-0.2-1.4,0.3
			c-0.8,0.4-1,1-0.3,1.2c-0.2,0.6,0.4,0.8,0.3,1.4c0.6,0.2,1.8,0.5,2-0.1c0.8-0.4,0.5-1.8,0.1-2.6
			C688.2,892.2,688.2,892.2,687.6,892z"/>
	</g>
	<g>
		<path class="st0" d="M726.1,941.9c-2.5,0.1-5.1-1-7.7-2.1c-3.9-2.3-6.5-4.7-8.1-9.7c-1.5-3.7-0.4-8.8,0.6-12.6
			c3.4-7.7,13.3-10.8,21.1-6.1c3.9,2.3,6.5,4.7,8,8.4c1.5,3.7,0.4,8.8-0.6,12.6C736.1,938.9,731.2,941.6,726.1,941.9z M725.2,923
			c-1.3,0.1-2.5,0.1-2.5,1.4c-1.2,1.3,0.1,2.5,0.1,2.5s0.1,1.3,1.4,2.5c1.3,1.2,3.8-0.2,5-1.5c-0.1-1.3-0.1-1.3-0.1-2.5
			c0,0-0.1-1.3-1.3-1.2C726.4,923,725.2,923,725.2,923z"/>
	</g>
	<g>
		<path class="st7" d="M683.4,969.5c-2,0.1-4.1-0.8-6.1-1.7c-3.1-1.9-5.3-4.8-6.4-7.7c-1.2-3-0.4-7,0.5-9.1
			c2.7-6.2,10.7-8.6,16.9-5.9c6.2,3.7,8.6,10.7,5.9,16.9C692.3,967,688.4,969.2,683.4,969.5z M682.6,954.4c0,0-1,0.1-2,1.1
			c-1,1.1-0.9,2.1,0.1,2c0.1,1,1.1,1,1.1,2c1-0.1,3-0.2,3-1.2c1-1.1-0.2-3-1.2-4C683.6,954.3,683.6,954.3,682.6,954.4z"/>
	</g>
	<g>
		<path class="st5" d="M702.5,883.4c-2.2,0.1-4.4-0.9-6.6-1.8c-4.4-1.9-6.7-5-8-8.2c-0.2-3.2-0.3-6.5,1.7-9.8
			c2.9-6.6,11.4-9.2,18.1-5.2c3.3,0.9,5.6,4,6.8,7.2c1.2,3.2,0.4,7.5-0.5,10.8C711,879.8,706.8,883.2,702.5,883.4z M701.7,867.3
			c-1.1,0.1-2.2,0.1-3.2,1.2c0.1,1.1,0.1,1.1,0.1,2.2c0,0,1.1,1,1.1,1c1.1,1,3.2-0.2,3.2-1.2c1-1.1-0.1-2.2-0.1-2.2
			S702.8,867.2,701.7,867.3C701.7,867.3,701.7,867.3,701.7,867.3z"/>
	</g>
	<g>
		<path class="st2" d="M828.6,554.2c-0.5-0.4-0.7-1-1-1.6c-0.3-1-0.2-2.1,0.1-2.9c0.3-0.9,1.3-1.6,1.9-1.9c1.8-0.8,4,0.2,4.8,2
			c0.6,2-0.2,4-2,4.8C831,555.4,829.7,555.1,828.6,554.2z M831.4,550.8c0,0-0.2-0.2-0.6-0.1s-0.6,0.3-0.4,0.5
			c-0.2,0.2,0,0.4-0.1,0.6c0.2,0.2,0.7,0.6,0.9,0.3c0.4,0,0.6-0.7,0.5-1.1C831.6,550.9,831.6,550.9,831.4,550.8z"/>
	</g>
	<g>
		<path class="st1" d="M824.1,610.2c-1-0.8-1.5-2.1-2.1-3.4c-0.7-2.2-0.4-4.4,0.3-6.3c0.7-1.9,2.8-3.4,4.1-4
			c3.9-1.7,8.6,0.5,10.3,4.4c1.3,4.4-0.5,8.6-4.4,10.3C829.3,612.9,826.5,612.2,824.1,610.2z M830.1,602.9c0,0-0.5-0.4-1.4-0.3
			c-0.9,0.1-1.3,0.6-0.8,1c-0.4,0.5,0.1,0.9-0.3,1.4c0.5,0.4,1.5,1.2,1.9,0.7c0.9-0.1,1.2-1.5,1.1-2.3
			C830.6,603.3,830.6,603.3,830.1,602.9z"/>
	</g>
	<g>
		<path class="st2" d="M838.4,585.7c-0.9-0.7-1.4-2-2-3.2c-0.6-2-0.4-4.1,0.3-5.9c0.7-1.7,2.6-3.2,3.8-3.7c3.6-1.6,8,0.5,9.6,4.1
			c1.2,4.1-0.5,8-4.1,9.6C843.2,588.1,840.7,587.5,838.4,585.7z M844,578.8c0,0-0.5-0.4-1.3-0.3c-0.8,0.1-1.2,0.5-0.7,0.9
			c-0.4,0.5,0.1,0.8-0.3,1.3c0.5,0.4,1.4,1.1,1.7,0.7c0.8-0.1,1.1-1.4,1-2.2C844.5,579.2,844.5,579.2,844,578.8z"/>
	</g>
	<g>
		<path class="st4" d="M857.9,617.8c-1.1-0.3-2-1.1-2.9-1.9c-1.3-1.5-2-3.3-2.1-5.1c-0.1-1.7,0.9-3.7,1.7-4.7
			c2.4-2.8,6.9-2.8,9.7-0.4c2.7,2.9,2.8,6.9,0.4,9.7C863,617.9,860.6,618.5,857.9,617.8z M859.9,609.8c0,0-0.5-0.1-1.2,0.3
			s-0.8,0.9-0.3,1.1c-0.1,0.5,0.4,0.7,0.3,1.2c0.5,0.1,1.6,0.4,1.7-0.1c0.7-0.4,0.4-1.6,0-2.3C860.5,609.9,860.5,609.9,859.9,609.8z
			"/>
	</g>
	<g>
		<path class="st2" d="M836.4,567c0.4,0.6,0.6,1.5,0.7,2.4c0,1.4-0.5,2.7-1.2,3.7s-2.2,1.6-3.1,1.7c-2.6,0.4-5-1.7-5.4-4.3
			c-0.1-2.8,1.7-5,4.3-5.4C833.7,564.6,835.3,565.4,836.4,567z M831.6,570.3c0,0,0.2,0.3,0.8,0.4c0.5,0.1,0.9-0.1,0.6-0.4
			c0.3-0.2,0.1-0.5,0.4-0.8c-0.2-0.3-0.7-1-1-0.7c-0.5-0.1-1,0.7-1.1,1.2C831.4,570,831.4,570,831.6,570.3z"/>
	</g>
	<g>
		<path class="st4" d="M822.5,659c-1.9-0.5-3.6-1.9-5.2-3.3c-2.4-2.6-3.5-5.9-3.8-9s1.7-6.6,3.1-8.3c4.3-5,12.4-4.9,17.3-0.7
			c4.7,5.2,4.9,12.4,0.7,17.3C831.6,659.3,827.3,660.2,822.5,659z M826.2,644.8c0,0-0.9-0.2-2.1,0.5s-1.4,1.7-0.5,1.9
			c-0.2,0.9,0.7,1.2,0.5,2.1c0.9,0.2,2.8,0.7,3.1-0.2c1.2-0.7,0.7-2.8,0-4C827.1,645,827.1,645,826.2,644.8z"/>
	</g>
	<g>
		<path class="st0" d="M859.6,694.9c-2.2-0.6-4.1-2.2-6-3.8c-2.7-3-4.1-6.8-4.3-10.4c-0.3-3.5,1.9-7.6,3.6-9.5
			c4.9-5.7,14.2-5.7,19.9-0.7c5.4,6,5.7,14.2,0.7,19.9C870,695.2,865.1,696.3,859.6,694.9z M863.8,678.6c0,0-1.1-0.3-2.5,0.5
			c-1.4,0.8-1.6,1.9-0.6,2.2c-0.3,1.1,0.8,1.4,0.5,2.5c1.1,0.3,3.3,0.8,3.5-0.3c1.4-0.8,0.8-3.3,0-4.6
			C864.8,678.8,864.8,678.8,863.8,678.6z"/>
	</g>
	<g>
		<path class="st4" d="M816.2,711c-2.7-0.7-5.1-2.8-7.5-4.8c-3.4-3.8-5.1-8.6-5.5-13.1s2.4-9.6,4.5-12c6.2-7.2,17.9-7.2,25.1-0.9
			c6.8,7.6,7.2,17.9,0.9,25.1C829.2,711.4,823,712.8,816.2,711z M821.4,690.5c0,0-1.4-0.3-3.1,0.7s-2.1,2.4-0.7,2.7
			c-0.3,1.4,1,1.7,0.7,3.1c1.4,0.3,4.1,1,4.5-0.3c1.7-1,1-4.1,0-5.8C822.7,690.8,822.7,690.8,821.4,690.5z"/>
	</g>
	<g>
		<path class="st3" d="M678.7,976.8c0.8,0.2,1.4,0.7,2.1,1.3c1,1,1.5,2.3,1.6,3.5c0.1,1.2-0.6,2.7-1.1,3.3c-1.6,2-4.9,2.1-6.9,0.4
			c-1.9-2-2.1-4.9-0.4-6.9C675.1,976.8,676.8,976.4,678.7,976.8z M677.4,982.5c0,0,0.4,0.1,0.8-0.2c0.5-0.3,0.5-0.7,0.2-0.8
			c0.1-0.4-0.3-0.5-0.2-0.8c-0.4-0.1-1.1-0.3-1.2,0.1c-0.5,0.3-0.3,1.1,0,1.6C677,982.4,677,982.4,677.4,982.5z"/>
	</g>
	<g>
		<path class="st6" d="M697.1,914.1c0.8,0.2,1.4,0.7,2.1,1.3c1,1,1.5,2.3,1.6,3.5c0.1,1.2-0.6,2.7-1.1,3.3c-1.6,2-4.9,2.1-6.9,0.4
			c-1.9-2-2.1-4.9-0.4-6.9C693.6,914.1,695.2,913.7,697.1,914.1z M695.9,919.8c0,0,0.4,0.1,0.8-0.2c0.5-0.3,0.5-0.7,0.2-0.8
			c0.1-0.4-0.3-0.5-0.2-0.8c-0.4-0.1-1.1-0.3-1.2,0.1c-0.5,0.3-0.3,1.1,0,1.6C695.5,919.7,695.5,919.7,695.9,919.8z"/>
	</g>
	<g>
		<path class="st6" d="M678.9,923.8c1.1,0.2,2.1,1.1,3.1,1.9c1.4,1.5,2.1,3.4,2.3,5.2c0.2,1.8-0.9,3.9-1.7,4.9
			c-2.4,2.9-7.1,3.1-10,0.6c-2.8-3-3.1-7.1-0.6-10C673.7,923.8,676.1,923.2,678.9,923.8z M677,932.1c0,0,0.6,0.1,1.2-0.3
			c0.7-0.4,0.8-1,0.2-1.1c0.1-0.6-0.4-0.7-0.3-1.2c-0.6-0.1-1.7-0.4-1.8,0.2c-0.7,0.4-0.4,1.7,0.1,2.3
			C676.5,932,676.5,932,677,932.1z"/>
	</g>
	<g>
		<path class="st6" d="M711.2,955.7c1.1,0.2,2,1,3,1.8c1.4,1.4,2.1,3.3,2.3,5.1c0.2,1.7-0.9,3.8-1.6,4.8c-2.4,2.9-6.9,3-9.8,0.6
			c-2.8-2.9-3-6.9-0.6-9.8C706.1,955.7,708.5,955.1,711.2,955.7z M709.4,963.9c0,0,0.5,0.1,1.2-0.3c0.7-0.4,0.8-1,0.2-1.1
			c0.1-0.5-0.4-0.7-0.3-1.2c-0.5-0.1-1.6-0.4-1.7,0.2c-0.7,0.4-0.4,1.6,0.1,2.3C708.9,963.7,708.9,963.7,709.4,963.9z"/>
	</g>
	<g>
		<path class="st7" d="M774.8,856c-1.8,0.1-3.7-0.7-5.5-1.5c-2.8-1.7-4.8-4.3-5.8-7c-1-2.7-0.3-6.3,0.5-8.2
			c2.4-5.6,9.6-7.7,15.2-5.3c5.6,3.3,7.7,9.6,5.3,15.2C782.9,853.8,779.4,855.8,774.8,856z M774.2,842.4c0,0-0.9,0-1.8,1
			c-0.9,1-0.8,1.9,0.1,1.8c0,0.9,1,0.9,1,1.8c0.9,0,2.7-0.1,2.7-1c0.9-1-0.1-2.7-1.1-3.6C775.1,842.4,775.1,842.4,774.2,842.4z"/>
	</g>
	<g>
		<path class="st7" d="M757.5,934.4c-1.7,0.1-3.4-0.7-5.1-1.4c-2.6-1.5-4.3-3.9-5.3-6.4c-1-2.4-0.3-5.8,0.4-7.5
			c2.2-5.1,8.8-7.1,13.9-4.9c5.1,3.1,7.1,8.8,4.9,13.9C764.8,932.3,761.6,934.2,757.5,934.4z M756.8,922c0,0-0.8,0-1.6,0.9
			c-0.8,0.9-0.7,1.7,0.1,1.7c0,0.8,0.9,0.8,0.9,1.6c0.8,0,2.5-0.1,2.4-1c0.8-0.9-0.1-2.5-1-3.3C757.7,921.9,757.7,921.9,756.8,922z"
			/>
	</g>
	<g>
		<path class="st7" d="M770.4,769.8c-1.6,0.1-3.2-0.6-4.8-1.3c-2.4-1.4-4.1-3.7-5-6c-0.9-2.3-0.3-5.5,0.4-7.1
			c2.1-4.8,8.3-6.7,13.1-4.6c4.8,2.9,6.7,8.3,4.6,13.1C777.3,767.8,774.3,769.6,770.4,769.8z M769.8,758.1c0,0-0.8,0-1.5,0.9
			s-0.7,1.6,0.1,1.6c0,0.8,0.8,0.7,0.9,1.5c0.8,0,2.3-0.1,2.3-0.9c0.7-0.8-0.1-2.3-0.9-3.1C770.6,758,770.6,758,769.8,758.1z"/>
	</g>
	<g>
		<path class="st7" d="M826.3,773.5c-1.6,0.1-3.2-0.6-4.8-1.3c-2.4-1.4-4.1-3.7-5-6c-0.9-2.3-0.3-5.5,0.4-7.1
			c2.1-4.8,8.3-6.7,13.1-4.6c4.8,2.9,6.7,8.3,4.6,13.1C833.3,771.6,830.2,773.3,826.3,773.5z M825.7,761.8c0,0-0.8,0-1.5,0.9
			c-0.7,0.8-0.7,1.6,0.1,1.6c0,0.8,0.8,0.7,0.9,1.5c0.8,0,2.3-0.1,2.3-0.9c0.7-0.8-0.1-2.3-0.9-3.1
			C826.5,761.8,826.5,761.8,825.7,761.8z"/>
	</g>
	<g>
		<path class="st1" d="M845.4,808.7c-2.3-0.6-4.3-2.4-6.2-4.2c-2.8-3.3-4.1-7.3-4.3-11.1c-0.2-3.8,2.3-8,4.1-10
			c5.4-5.9,15.2-5.6,21.1-0.2c5.6,6.5,5.6,15.2,0.2,21.1C856.3,809.4,851.1,810.4,845.4,808.7z M850.2,791.6c0,0-1.1-0.3-2.6,0.5
			s-1.8,2-0.6,2.3c-0.3,1.1,0.8,1.5,0.5,2.6c1.1,0.3,3.4,1,3.8-0.2c1.5-0.8,1-3.4,0.1-4.9C851.3,791.9,851.3,791.9,850.2,791.6z"/>
	</g>
	<g>
		<path class="st6" d="M808.3,838.1c-0.9-0.2-1.6-0.9-2.3-1.6c-1-1.2-1.5-2.7-1.6-4.2c-0.1-1.4,0.8-3,1.5-3.7c2-2.2,5.7-2.1,7.9-0.1
			c2.1,2.4,2.1,5.7,0.1,7.9C812.4,838.3,810.5,838.7,808.3,838.1z M810.1,831.7c0,0-0.4-0.1-1,0.2c-0.5,0.3-0.7,0.7-0.2,0.9
			c-0.1,0.4,0.3,0.5,0.2,1c0.4,0.1,1.3,0.4,1.4-0.1c0.5-0.3,0.4-1.3,0.1-1.8C810.6,831.8,810.6,831.8,810.1,831.7z"/>
	</g>
	<g>
		<path class="st3" d="M739.6,887.7c-0.7-0.2-1.3-0.7-1.9-1.3c-0.9-1-1.3-2.3-1.3-3.4c-0.1-1.2,0.7-2.5,1.2-3.1
			c1.6-1.8,4.7-1.7,6.5-0.1c1.7,2,1.7,4.7,0.1,6.5C743,887.9,741.4,888.2,739.6,887.7z M741.1,882.4c0,0-0.4-0.1-0.8,0.2
			c-0.5,0.3-0.5,0.6-0.2,0.7c-0.1,0.4,0.3,0.5,0.2,0.8c0.4,0.1,1.1,0.3,1.2-0.1c0.5-0.3,0.3-1.1,0-1.5
			C741.4,882.5,741.4,882.5,741.1,882.4z"/>
	</g>
	<g>
		<path class="st6" d="M714.3,833.6c-0.9-0.2-1.6-0.9-2.3-1.6c-1-1.2-1.5-2.7-1.6-4.2c-0.1-1.4,0.8-3,1.5-3.7c2-2.2,5.7-2.1,7.9-0.1
			c2.1,2.4,2.1,5.7,0.1,7.9C718.4,833.8,716.4,834.2,714.3,833.6z M716.1,827.1c0,0-0.4-0.1-1,0.2c-0.5,0.3-0.7,0.7-0.2,0.9
			c-0.1,0.4,0.3,0.5,0.2,1c0.4,0.1,1.3,0.4,1.4-0.1c0.5-0.3,0.4-1.3,0.1-1.8C716.5,827.2,716.5,827.2,716.1,827.1z"/>
	</g>
	<g>
		<path class="st7" d="M869.5,661.9c-1.9,0.1-3.9-0.8-5.9-1.6c-3-1.8-5.1-4.6-6.2-7.5c-1.1-2.9-0.3-6.8,0.5-8.8
			c2.6-6,10.3-8.3,16.3-5.7c6,3.6,8.3,10.3,5.7,16.3C878.1,659.5,874.3,661.6,869.5,661.9z M868.7,647.3c0,0-1,0-1.9,1.1
			c-0.9,1-0.9,2,0.1,1.9c0,1,1,0.9,1.1,1.9c1,0,2.9-0.1,2.9-1.1c0.9-1-0.1-2.9-1.2-3.8C869.7,647.3,869.7,647.3,868.7,647.3z"/>
	</g>
	<g>
		<path class="st6" d="M831.4,738.3c-1.2-0.3-2.3-1.3-3.3-2.2c-1.5-1.7-2.2-3.9-2.3-5.9c-0.1-2,1.2-4.2,2.1-5.3
			c2.8-3.1,8-3,11.2-0.1c3,3.5,3,8,0.1,11.2C837.2,738.6,834.5,739.1,831.4,738.3z M834,729.2c0,0-0.6-0.2-1.4,0.3
			c-0.8,0.4-0.9,1-0.3,1.2c-0.2,0.6,0.4,0.8,0.3,1.4c0.6,0.2,1.8,0.5,2-0.1c0.8-0.4,0.5-1.8,0.1-2.6
			C834.6,729.3,834.6,729.3,834,729.2z"/>
	</g>
	<g>
		<path class="st1" d="M858.1,713.6c-0.9-0.2-1.6-0.9-2.3-1.6c-1-1.2-1.5-2.7-1.6-4.2c-0.1-1.4,0.8-3,1.5-3.7c2-2.2,5.7-2.1,7.9-0.1
			c2.1,2.4,2.1,5.7,0.1,7.9C862.2,713.9,860.2,714.2,858.1,713.6z M859.9,707.2c0,0-0.4-0.1-1,0.2c-0.5,0.3-0.7,0.7-0.2,0.9
			c-0.1,0.4,0.3,0.5,0.2,1c0.4,0.1,1.3,0.4,1.4-0.1c0.5-0.3,0.4-1.3,0.1-1.8C860.3,707.3,860.3,707.3,859.9,707.2z"/>
	</g>
	<g>
		<path class="st4" d="M845.3,631.7c-0.9-0.2-1.6-0.9-2.3-1.6c-1-1.2-1.5-2.7-1.6-4.2c-0.1-1.4,0.8-3,1.5-3.7c2-2.2,5.7-2.1,7.9-0.1
			c2.1,2.4,2.1,5.7,0.1,7.9C849.4,631.9,847.5,632.3,845.3,631.7z M847.1,625.3c0,0-0.4-0.1-1,0.2c-0.5,0.3-0.7,0.7-0.2,0.9
			c-0.1,0.4,0.3,0.5,0.2,1c0.4,0.1,1.3,0.4,1.4-0.1c0.5-0.3,0.4-1.3,0.1-1.8C847.6,625.4,847.6,625.4,847.1,625.3z"/>
	</g>
	<g>
		<path class="st5" d="M541.9,716.3"/>
		<g>
			<path class="st5" d="M541.9,748.8c17,0,33.3-14.9,32.5-32.5c-0.8-17.6-14.3-32.5-32.5-32.5c-17,0-33.3,14.9-32.5,32.5
				C510.2,733.9,523.7,748.8,541.9,748.8L541.9,748.8z"/>
		</g>
	</g>
	<g>
		<path class="st5" d="M494.1,594.5"/>
		<g>
			<path class="st5" d="M494.1,627c17,0,33.3-14.9,32.5-32.5c-0.8-17.6-14.3-32.5-32.5-32.5c-17,0-33.3,14.9-32.5,32.5
				C462.4,612.1,475.9,627,494.1,627L494.1,627z"/>
		</g>
	</g>
	<g>
		<path class="st5" d="M593.9,380.8"/>
		<g>
			<path class="st5" d="M593.9,393.8c16.7,0,16.8-26,0-26C577.2,367.8,577.2,393.8,593.9,393.8L593.9,393.8z"/>
		</g>
	</g>
	<g>
		<path class="st5" d="M660.1,531.2"/>
		<g>
			<path class="st5" d="M660.1,544.2c16.7,0,16.8-26,0-26C643.3,518.2,643.3,544.2,660.1,544.2L660.1,544.2z"/>
		</g>
	</g>
	<g>
		<path class="st5" d="M483.4,824.9"/>
		<g>
			<path class="st5" d="M483.4,837.9c16.7,0,16.8-26,0-26C466.7,811.9,466.6,837.9,483.4,837.9L483.4,837.9z"/>
		</g>
	</g>
	<g>
		<path class="st5" d="M461.9,902.5"/>
		<g>
			<path class="st5" d="M461.9,915.5c16.7,0,16.8-26,0-26C445.2,889.5,445.1,915.5,461.9,915.5L461.9,915.5z"/>
		</g>
	</g>
	<g>
		<path class="st5" d="M783,797.4"/>
		<g>
			<path class="st5" d="M783,810.4c16.7,0,16.8-26,0-26C766.3,784.4,766.3,810.4,783,810.4L783,810.4z"/>
		</g>
	</g>
	<g>
		<path class="st5" d="M700.7,870.3"/>
		<g>
			<path class="st5" d="M700.7,883.3c16.7,0,16.8-26,0-26C683.9,857.3,683.9,883.3,700.7,883.3L700.7,883.3z"/>
		</g>
	</g>
	<g>
		<path class="st2" d="M727.1,426.5"/>
		<g>
			<path class="st2" d="M727.1,433c8.4,0,8.4-13,0-13C718.8,420,718.8,433,727.1,433L727.1,433z"/>
		</g>
	</g>
	<g>
		<path class="st2" d="M720.9,421.7"/>
		<g>
			<path class="st2" d="M720.9,428.2c8.4,0,8.4-13,0-13C712.6,415.2,712.5,428.2,720.9,428.2L720.9,428.2z"/>
		</g>
	</g>
	<g>
		<path class="st2" d="M723.3,434.8c-0.1-3-1.4-6-3.5-8.2"/>
		<path class="st2" d="M729.8,434.8c-0.3-4.9-2.1-9.2-5.4-12.8c-2.3-2.5-6.9-2.5-9.2,0c-2.5,2.7-2.5,6.5,0,9.2
			c0.2,0.3,0.5,0.5,0.7,0.8c-0.5-0.6-0.5-0.6-0.1,0c0.2,0.5,0.5,0.9,0.8,1.4c-0.6-1.4,0,0.3,0.1,0.5c0.1,0.3,0.2,0.7,0.2,1.1
			c-0.1-0.8-0.1-0.9-0.1-0.1c0.2,3.4,2.9,6.7,6.5,6.5C726.7,441.1,730,438.4,729.8,434.8L729.8,434.8z"/>
	</g>
	<g>
		<path class="st2" d="M750.3,584.8c-2.4,0-4.7,0-7.1-0.1c-0.4,0-0.8,0-1.1,0.3c-0.3,0.2-0.4,0.6-0.4,1c-0.5,2.5-0.9,5.5,0.9,7.3
			c1.9,2,5.5,1.4,7.5-0.5s2.9-4.7,3.7-7.3"/>
		<path class="st2" d="M750.3,578.3c-5.4,0-12.8-1.2-14.8,5.4c-1.4,4.7-1.2,10.6,2.4,14.2c3.8,3.8,9.9,4,14.3,1.3
			c4.4-2.6,6.3-7.4,7.8-12c1-3.4-1.2-7.1-4.5-8c-3.5-1-7,1.2-8,4.5c-0.4,1.3-0.8,2.6-1.3,3.4c-0.8,1.4,0.3-0.1-0.8,1.1
			c0.7-0.7,0.7,0.2,0-0.1c0.4,0.2,0.9,0,1.3,0.3c0.1,0.1,0.2,0.2,0.3,0.3c0.7,1.4,0.8,1.5,0.5,0.5c0,0.1,0.1,0.2,0.1,0.3
			c0-0.4,0-0.7,0-1.1c0-0.5,0-0.5,0-0.1c0.2-0.9,0.2-0.9-0.1-0.1c-0.8,0.8-1.6,1.6-2.3,2.3c0.2-0.1,0.4-0.2,0.5-0.2
			c-1.1,0.3-2.2,0.6-3.3,0.9c2.6-0.1,5.1,0,7.7,0C758.7,591.4,758.7,578.4,750.3,578.3L750.3,578.3z"/>
	</g>
	<g>
		<path class="st7" d="M634.4,799.5"/>
		<g>
			<path class="st7" d="M634.4,806c8.4,0,8.4-13,0-13C626,793,626,806,634.4,806L634.4,806z"/>
		</g>
	</g>
	<g>
		<path class="st7" d="M579.5,778.9"/>
		<g>
			<path class="st7" d="M579.5,785.4c8.4,0,8.4-13,0-13C571.1,772.4,571.1,785.4,579.5,785.4L579.5,785.4z"/>
		</g>
	</g>
	<g>
		<path class="st7" d="M617.8,694.6"/>
		<g>
			<path class="st7" d="M617.8,701.1c8.4,0,8.4-13,0-13C609.4,688.1,609.4,701.1,617.8,701.1L617.8,701.1z"/>
		</g>
	</g>
	<g>
		<path class="st7" d="M622.2,699.1"/>
		<g>
			<path class="st7" d="M622.2,705.6c8.4,0,8.4-13,0-13C613.8,692.6,613.8,705.6,622.2,705.6L622.2,705.6z"/>
		</g>
	</g>
	<g>
		<path class="st7" d="M663.2,585.9"/>
		<g>
			<path class="st7" d="M663.2,592.4c8.4,0,8.4-13,0-13C654.9,579.4,654.9,592.4,663.2,592.4L663.2,592.4z"/>
		</g>
	</g>
	<g>
		<path class="st7" d="M407.5,821.1"/>
		<g>
			<path class="st7" d="M407.5,827.6c8.4,0,8.4-13,0-13C399.2,814.6,399.1,827.6,407.5,827.6L407.5,827.6z"/>
		</g>
	</g>
	<g>
		<path class="st7" d="M408.6,817.2"/>
		<g>
			<path class="st7" d="M408.6,823.7c8.4,0,8.4-13,0-13C400.3,810.7,400.3,823.7,408.6,823.7L408.6,823.7z"/>
		</g>
	</g>
	<g>
		<path class="st7" d="M555.6,844.4c-1.1-0.9-2.1-1.8-3.2-2.7c-1.3,4.6,4,9.5,1.9,13.7c2.7-0.2,5.2-1.6,6.7-3.8"/>
		<path class="st7" d="M560.2,839.8c-1.1-0.9-2.1-1.8-3.2-2.7c-3.5-3-9.8-2.3-10.9,2.9c-0.7,3.1-0.4,6.1,0.7,9
			c0.4,1.1,0.8,2.1,1.2,3.1c0.1,0.3,0.4,1.6,0.3,0.7c0.1,1.2,0.2-0.3-0.2,0.9c-1.5,3.7,2.3,8.7,6.3,8.2c5.3-0.6,9.1-2.8,12.3-7
			c2.1-2.8,0.4-7.3-2.3-8.9c-3.3-2-6.8-0.5-8.9,2.3c0.1-0.1-1.2,0.6-1.1,0.6c2.1,2.7,4.2,5.5,6.3,8.2c1.1-2.8,0.8-6-0.2-8.8
			c-0.4-1.1-0.8-2.1-1.2-3.1c-0.2-0.6-0.4-1.2-0.5-1.8c0.3,0.8,0.2-1,0,0c-3.6,1-7.2,1.9-10.9,2.9c1.1,0.9,2.1,1.8,3.2,2.7
			c2.7,2.3,6.6,2.6,9.2,0C562.6,846.6,562.9,842.1,560.2,839.8L560.2,839.8z"/>
	</g>
	<g>
		<path class="st7" d="M399.7,679.7c-1.1-0.2-2.2-0.9-2.7-2c-0.1-0.3-0.2-0.7,0-0.9c0.2-0.2,0.7,0.2,0.4,0.4"/>
		<path class="st7" d="M401.5,673.4c-0.3-0.1-0.5-0.1-0.8-0.2c0.5,0.2,1,0.4,1.6,0.7C401.9,673.7,401.6,673.6,401.5,673.4
			c0.3,0.3,0.8,0.6,1.2,1c-0.3-0.2-0.5-0.4-0.7-0.7c0.3,0.4,0.7,0.9,1,1.3c-0.2-0.2-0.3-0.4-0.4-0.7c0.2,0.5,0.4,1,0.7,1.6
			c0-0.1-0.1-0.2-0.1-0.3c0.1,0.6,0.2,1.2,0.2,1.7c0-0.1,0-0.1,0-0.2c-0.1,0.6-0.2,1.2-0.2,1.7c0,0,0-0.1,0-0.1
			c-0.2,0.5-0.4,1-0.7,1.6c0,0,0.1-0.1,0.1-0.1c-0.8,0.8-1.6,1.6-2.3,2.3c0,0,0.1,0,0.1-0.1c-1.1,0.3-2.2,0.6-3.3,0.9
			c0,0,0.1,0,0.1,0c-0.6-0.1-1.2-0.2-1.7-0.2c0,0,0.1,0,0.1,0c-0.5-0.2-1-0.4-1.6-0.7c0,0,0.1,0,0.1,0c-0.4-0.3-0.9-0.7-1.3-1
			c0,0,0.1,0,0.1,0.1c-0.3-0.4-0.7-0.9-1-1.3c0,0,0,0.1,0.1,0.1c-0.2-0.5-0.4-1-0.7-1.6c0,0,0,0.1,0,0.1c0-1.2,0-2.3,0-3.5
			c0,0,0,0,0,0.1c0.6-1,1.1-1.9,1.7-2.9c0,0,0,0-0.1,0.1c-1.2,1.1-1.9,3-1.9,4.6c0,1.6,0.7,3.5,1.9,4.6c1.2,1.1,2.9,2,4.6,1.9
			c1.7-0.1,3.3-0.7,4.6-1.9c1.8-1.7,2.3-4.2,1.7-6.5c-0.5-2.2-2.6-4.1-4.8-4.7c-2.3-0.6-4.9,0-6.6,1.7c-1.8,1.8-2.4,4.3-1.8,6.7
			c0.2,0.8,0.6,1.7,1.1,2.4c0.5,0.7,1,1.5,1.7,2c1.3,1.1,2.9,2.1,4.6,2.5c1.7,0.3,3.4,0.3,5-0.7c1.3-0.8,2.6-2.3,3-3.9
			c0.4-1.7,0.3-3.5-0.7-5C404.5,675.1,403.1,673.8,401.5,673.4L401.5,673.4z"/>
	</g>
	<g>
		<path class="st7" d="M417.5,719"/>
		<g>
			<path class="st7" d="M417.5,725.5c8.4,0,8.4-13,0-13C409.1,712.5,409.1,725.5,417.5,725.5L417.5,725.5z"/>
		</g>
	</g>
	<g>
		<path class="st7" d="M370.9,750.1"/>
		<g>
			<path class="st7" d="M370.9,756.6c8.4,0,8.4-13,0-13C362.6,743.6,362.5,756.6,370.9,756.6L370.9,756.6z"/>
		</g>
	</g>
	<g>
		<path class="st7" d="M736.9,847.6"/>
		<g>
			<path class="st7" d="M736.9,854.1c8.4,0,8.4-13,0-13C728.5,841.1,728.5,854.1,736.9,854.1L736.9,854.1z"/>
		</g>
	</g>
	<g>
		<path class="st7" d="M869.4,748.2"/>
		<g>
			<path class="st7" d="M869.4,754.7c8.4,0,8.4-13,0-13C861,741.7,861,754.7,869.4,754.7L869.4,754.7z"/>
		</g>
	</g>
	<g>
		<path class="st7" d="M799.2,731.7"/>
		<g>
			<path class="st7" d="M799.2,738.2c8.4,0,8.4-13,0-13C790.8,725.2,790.8,738.2,799.2,738.2L799.2,738.2z"/>
		</g>
	</g>
	<g>
		<path class="st7" d="M867,649.6"/>
		<g>
			<path class="st7" d="M867,656.1c8.4,0,8.4-13,0-13C858.6,643.1,858.6,656.1,867,656.1L867,656.1z"/>
		</g>
	</g>
	<g>
		<path class="st7" d="M825.2,761.6"/>
		<g>
			<path class="st7" d="M825.2,768.1c8.4,0,8.4-13,0-13C816.8,755.1,816.8,768.1,825.2,768.1L825.2,768.1z"/>
		</g>
	</g>
	<g>
		<path class="st7" d="M770.4,760.2"/>
		<g>
			<path class="st7" d="M770.4,766.7c8.4,0,8.4-13,0-13C762.1,753.7,762.1,766.7,770.4,766.7L770.4,766.7z"/>
		</g>
	</g>
	<g>
		<path class="st7" d="M774.5,843.3"/>
		<g>
			<path class="st7" d="M774.5,849.8c8.4,0,8.4-13,0-13C766.2,836.8,766.2,849.8,774.5,849.8L774.5,849.8z"/>
		</g>
	</g>
	<g>
		<path class="st6" d="M589.5,593.4"/>
		<g>
			<path class="st6" d="M589.5,599.9c8.4,0,8.4-13,0-13C581.2,586.9,581.2,599.9,589.5,599.9L589.5,599.9z"/>
		</g>
	</g>
	<g>
		<path class="st6" d="M592.6,592.1c-2.4-0.7-5.1-0.8-7.2,0.5c-2.1,1.3-3.3,4.2-2.1,6.4c1.2,2,3.8,2.5,6,2.6
			c6,0.3,13.9-3.5,12.4-9.4c-5.9-3.3-12-6.4-18.3-9"/>
		<path class="st6" d="M594.4,585.8c-8-2-18.3,1.6-18,11.4c0.3,9.5,10.9,11.8,18.5,10.3c6.7-1.4,13.7-6.5,13.6-14
			c-0.1-5.7-4.3-7.5-8.8-9.8c-4.2-2.2-8.5-4.2-12.9-6.1c-3.2-1.4-7-1-8.9,2.3c-1.6,2.7-0.9,7.5,2.3,8.9c6.3,2.7,12.4,5.7,18.3,9
			c-1-1.3-2-2.6-3-3.9c-0.2-1.2,0.5-1-0.8-0.1c-1,0.7-2.3,1.1-3.5,1.2c-0.7,0.1-1.3,0-2,0c-2.4,0.2-0.3-0.5-0.3,0.6
			c-0.1,3.3-0.6,2.1,1.9,2.7C599,600.4,602.5,587.9,594.4,585.8L594.4,585.8z"/>
	</g>
	<g>
		<path class="st4" d="M716,525.4c2,0.1,3.9-1.6,4-3.6c-3.6,1.3-7.3,2.5-10.9,3.8c-0.8,0.3-1.8,0.5-2.4-0.1s0.4-2,0.9-1.3"/>
		<path class="st4" d="M716,531.9c4.8-0.3,9.4-3.3,10.3-8.3c0.8-4.5-2.9-9.8-8-8c-2.2,0.7-4.3,1.5-6.5,2.2c-1,0.3-2,0.7-3,1
			c-0.5,0.2-1,0.3-1.5,0.5c-0.8,0.3-0.8,0.3-0.2,0c1.1,0.3,2.2,0.6,3.3,0.9c-0.2-0.1-0.4-0.2-0.5-0.3c0.8,0.8,1.6,1.6,2.3,2.3
			c-0.1-0.1-0.1-0.3-0.2-0.4c0.2,1.7,0.4,3.3,0.7,5c-0.1,0.2-0.2,0.5-0.3,0.7c-0.8,0.8-1.6,1.6-2.3,2.3c0.1-0.1,0.2-0.1,0.4-0.2
			c-2.2,0-4.4,0-6.6,0c0.1,0.1,0.2,0.1,0.4,0.2c3.1,1.6,7.1,0.8,8.9-2.3c1.7-2.9,0.8-7.3-2.3-8.9c-3.6-1.9-7.5-0.9-9.8,2.5
			c-2.2,3.4-0.9,8.2,2.6,10.1c3.1,1.7,6.1,1,9.2-0.1c3-1,6-2.1,8.9-3.1c-2.7-2.7-5.3-5.3-8-8c-0.3,1-0.1,1,0.5-0.1
			c0.3-0.8,0.9-1.1,1.8-1.1c-3.5,0.2-6.5,2.8-6.5,6.5C709.5,528.7,712.5,532.1,716,531.9L716,531.9z"/>
	</g>
	<g>
		<path class="st4" d="M693.3,719.3c-0.9,0.2-1.7,1-1.8,1.9c2.5,0.7,5.1,0.8,7.7,0.3c1.5-0.3,3.3-1.5,3-3c-0.2-0.7-0.8-1.2-1.4-1.6
			c-1.7-1.3-3.6-2.6-5.7-2.5c-2.1,0.1-4.1,2.7-2.8,4.4"/>
		<path class="st4" d="M691.5,713.1c-3.1,1-5.5,3.2-6.3,6.4c-0.9,3.4,1.1,7.1,4.5,8c4.5,1.2,10.1,1.4,14.2-1c5.2-3,6.2-10,1.6-14.1
			c-3.8-3.3-9.1-5.9-14.1-3.8c-5.2,2.2-7.7,8.3-4.9,13.4c1.7,3.1,5.9,4.1,8.9,2.3c3.1-1.8,4-5.8,2.3-8.9c0.9,1.6,0.6,4-1,5
			c-0.6,0.3-1.3,0.4-2.1,0.3c0.7,0.2,0.9,0.3,0.5,0.2c-0.4-0.1-0.2,0,0.5,0.3c0.3,0.2,0.6,0.4,0.9,0.6c0.4,0.3,0.4,0.3,0,0
			c-0.4-0.7-0.4-0.7-0.1,0c-0.3-1.1-0.6-2.2-0.9-3.3c0.1-1.3,0.6-2.3,1.6-3c0.2-0.2,0.5-0.3,0.8-0.4c0,0.1-1.7,0.3-1.1,0.2
			c-1.6,0.1-2.3,0-3.6-0.4c1.5,2.7,3,5.3,4.5,8c-0.9,0.9-1.8,1.8-2.7,2.6c3.3-1,5.5-4.5,4.5-8C698.6,714.3,694.9,712,691.5,713.1
			L691.5,713.1z"/>
	</g>
	<g>
		<path class="st4" d="M821,694.1c1.5,2.2,5.5,1.8,6.5-0.6c-2.2-0.7-4.5-0.8-6.7-0.5"/>
		<path class="st4" d="M816.4,698.7c1.8,2.3,5.3,3.5,8.2,3.3c3.5-0.3,6.9-2,8.6-5.3c1.9-3.8,0.3-8.3-3.9-9.5c-3.4-1-6.7-1-10.1-0.5
			c-1.5,0.2-3.2,1.8-3.9,3c-0.8,1.4-1.2,3.4-0.7,5c0.5,1.6,1.5,3.1,3,3.9c1.7,0.9,3.2,0.9,5,0.7c-1.8,0.3-0.1,0.1,0.2,0.1
			c0.5,0,1,0,1.4,0c1.3,0.1-1.2-0.4,0.2,0c0.5,0.1,0.9,0.2,1.4,0.4c-1.3-3.2-2.6-6.4-3.9-9.5c-0.1,0.3-0.7,1,0,0.1
			c0.2-0.3,0.4-0.6,0.7-0.8c0.5-0.3,0.6-0.4,0.3-0.2c-0.8,0.6,0.3-0.1,0.6-0.2c-1,0.4,1.4,0,0.7,0c-0.3,0-1-0.1,0.1,0.1
			c1.6,0.2,0,0,0-0.1c0,0,1.5,0.7,0.8,0.3c1.3,0.8,0.9,0.8,0.5,0.2c-0.9-1.2-3.1-1.9-4.6-1.9c-1.6,0-3.5,0.7-4.6,1.9
			c-1.1,1.2-2,2.9-1.9,4.6C814.6,695.9,815.3,697.2,816.4,698.7L816.4,698.7z"/>
	</g>
	<g>
		<path class="st4" d="M828.5,647.8c-1.7,0-3.4,0-5.1,0"/>
		<path class="st4" d="M828.5,641.3c-1.7,0-3.4,0-5.1,0c-3.4,0-6.7,3-6.5,6.5c0.2,3.5,2.9,6.5,6.5,6.5c1.7,0,3.4,0,5.1,0
			c3.4,0,6.7-3,6.5-6.5C834.8,644.3,832.1,641.3,828.5,641.3L828.5,641.3z"/>
	</g>
	<g>
		<path class="st4" d="M502.5,519.7c-1.5-0.9-3.5,0.7-3.5,2.4c0,1.7,1.5,3.2,3.1,3.7c1.6,0.5,3.4,0.4,5.1,0.2
			c0.7-0.1,1.6-0.2,2.1-0.7c0.8-0.8,0.4-2.3-0.4-3c-0.9-0.7-2-1-3.1-1.2"/>
		<path class="st4" d="M504.2,513.4c-5.6-2.3-11.5,2.9-11.7,8.4c-0.3,5.8,4.8,9.9,10.1,10.6c5.1,0.7,11.9-0.4,13.3-6.3
			c1.4-5.8-3.1-10.3-8.5-11.3c-3.3-0.6-7.2,0.9-8,4.5c-0.7,3.2,1,7.3,4.5,8c0.4,0.1,1.2,0.4,1.7,0.4c-2.4,0.1-2.9-4.5-2-5.8
			c0.8-0.8,1.6-1.6,2.3-2.3c0.4-0.1,0.8-0.1,1.2-0.2c-0.5,0.1-1,0.1-1.5,0.1c-0.5,0-1,0-1.5,0c0.4,0.1,0.4,0.1-0.1,0
			c-0.5-0.1-0.5-0.1,0.2,0.1c0.3,0.2,0.5,0.4,0.7,0.7c0.8,1.5,0.6,3-0.6,4.4c-1.1,0.8-2.3,1.2-3.6,1.1c3.1,1.3,7.3-1.4,8-4.5
			C509.7,517.6,507.6,514.8,504.2,513.4L504.2,513.4z"/>
	</g>
	<g>
		<path class="st4" d="M424.6,619.7c-2.1,0.5-3.3,3.3-2.2,5.2c1.2,0,2.4-0.6,3-1.7"/>
		<path class="st4" d="M422.8,613.4c-6.3,1.7-9.2,9.1-6,14.7c1.1,2,3.4,3.2,5.6,3.2c3.6,0,6.7-1.9,8.6-4.9c1.8-2.9,0.7-7.3-2.3-8.9
			c-3.2-1.7-7-0.8-8.9,2.3c-0.1,0.2-0.2,0.3-0.3,0.5c0.3-0.4,0.7-0.9,1-1.3c-0.1,0.2-0.3,0.3-0.4,0.4c0.4-0.3,0.9-0.7,1.3-1
			c-0.3,0.2-0.5,0.3-0.8,0.5c0.5-0.2,1-0.4,1.6-0.7c-0.3,0.1-0.6,0.2-0.9,0.3c0.6-0.1,1.2-0.2,1.7-0.2c-0.2,0-0.4,0-0.6,0
			c1.9,1.1,3.7,2.1,5.6,3.2c-0.1-0.1-0.2-0.3-0.2-0.4c0.2,0.5,0.4,1,0.7,1.6c-0.1-0.2-0.1-0.5-0.2-0.7c0.1,0.6,0.2,1.2,0.2,1.7
			c0-0.3,0-0.7,0-1c-0.1,0.6-0.2,1.2-0.2,1.7c0.1-0.3,0.1-0.6,0.3-1c-0.2,0.5-0.4,1-0.7,1.6c0.1-0.3,0.3-0.6,0.5-0.9
			c-0.3,0.4-0.7,0.9-1,1.3c0.2-0.3,0.4-0.5,0.7-0.7c-0.4,0.3-0.9,0.7-1.3,1c0.2-0.1,0.4-0.3,0.6-0.4c-0.5,0.2-1,0.4-1.6,0.7
			c0.2-0.1,0.3-0.1,0.5-0.2c3.3-0.9,5.6-4.6,4.5-8C429.7,614.6,426.3,612.4,422.8,613.4L422.8,613.4z"/>
	</g>
	<g>
		<path class="st4" d="M551.3,641c-3,0-6,0-9,0c2.2,0.1,4.5,0.6,6.4,1.7"/>
		<path class="st4" d="M551.3,634.5c-3,0-6,0-9,0c-3.4,0-6.7,3-6.5,6.5c0.2,3.6,2.9,6.3,6.5,6.5c0.4,0,0.8,0,1.2,0.1
			c-1-0.1-0.1,0,0.4,0.2c0.4,0.1,0.8,0.3,1.2,0.4c1,0.2-1.2-0.6,0.4,0.2c3,1.5,7.2,0.9,8.9-2.3c1.6-2.9,0.9-7.3-2.3-8.9
			c-3.1-1.5-6.2-2.4-9.7-2.6c0,4.3,0,8.7,0,13c3,0,6,0,9,0c3.4,0,6.7-3,6.5-6.5C557.6,637.5,554.9,634.5,551.3,634.5L551.3,634.5z"
			/>
	</g>
	<g>
		<path class="st0" d="M654.9,453.3c-1.9-1.1-4.5-0.7-5.9,0.9c-1.5,1.6-1.7,4.2-0.5,6c0.4-2.6-0.7-5.5-2.7-7.2"/>
		<path class="st0" d="M658.2,447.7c-4.6-2.3-10.1-1.9-13.8,1.9c-3.6,3.7-4.1,9.5-1.6,13.9c1.4,2.4,4.6,3.9,7.3,3
			c3-1,4.4-3.3,4.8-6.3c0.5-4.3-1.4-8.9-4.6-11.8c-2.5-2.3-6.7-2.7-9.2,0c-2.3,2.5-2.7,6.8,0,9.2c0.3,0.3,1,1.3,0.4,0.3
			c0.3,0.5,0.5,1.5,0.3,0.4c0.1,0.4,0.2,1.8,0.2,0.4c0,0.5,0,1.1-0.1,1.6c4-1.1,8.1-2.2,12.1-3.3c-0.4-0.6-0.3-0.6,0.1,0.2
			c0.1,0.9,0.1,1,0.1,0.3c-0.2,0.9-0.1,1,0,0.3c-0.1,0.5-0.3,0.9-0.7,1.2c-0.7,0.5-0.8,0.5-0.1,0.1c-0.8,0.3-0.9,0.4-0.2,0.2
			c-0.5,0.2-1,0.2-1.5,0c0.7,0.2,0.6,0.1-0.2-0.1c3,1.5,7.2,0.9,8.9-2.3C662,453.7,661.4,449.3,658.2,447.7L658.2,447.7z"/>
	</g>
	<g>
		<path class="st0" d="M567.4,498.2c-1.1,0.1-2.2,0.2-3.3,0.3c3.2,2,7.2,2.7,10.9,2.2"/>
		<path class="st0" d="M567.4,491.7c-1.1,0.1-2.2,0.2-3.3,0.3c-2.9,0.3-5.5,1.8-6.3,4.8c-0.8,2.8,0.5,5.9,3,7.3
			c4.3,2.5,9.3,3.7,14.2,3c3.5-0.5,6.5-2.7,6.5-6.5c0-3.2-3-7-6.5-6.5c-0.9,0.1-1.9,0.2-2.8,0.2c-0.2,0-2-0.3-1.1-0.1
			c-0.7-0.1-1.4-0.3-2.1-0.5c-0.8-0.3-0.9-0.3-0.4-0.2c-0.4-0.2-0.8-0.4-1.2-0.7c-1.1,4-2.2,8.1-3.3,12.1c1.1-0.1,2.2-0.2,3.3-0.3
			c3.5-0.3,6.5-2.7,6.5-6.5C573.9,494.9,570.9,491.3,567.4,491.7L567.4,491.7z"/>
	</g>
	<g>
		<path class="st0" d="M680.5,647c-3.3,0-6.5,0-9.8,0c2.6,0.6,5.4,0,8.1,0.3c2.7,0.3,5.6,2.2,5.4,4.9"/>
		<path class="st0" d="M680.5,640.5c-3.3,0-6.5,0-9.8,0c-3.2,0-6,2.5-6.4,5.6c-0.4,3,1.4,6.5,4.7,7.1c2.8,0.5,5.5,0.3,8.3,0.4
			c0.2,0,1.5-0.2,0.9,0c0.7,0.4,0.8,0.5,0.3,0.2c-0.4-0.5-0.7-1.1-0.8-1.7c0.1,8.4,13.1,8.4,13,0c-0.1-4.3-2.5-7.9-6.3-9.9
			c-2-1-3.9-1.4-6.1-1.6c-1.9-0.1-4,0.3-5.9,0c-0.6,4.3-1.2,8.5-1.7,12.8c3.3,0,6.5,0,9.8,0C688.9,653.5,688.9,640.5,680.5,640.5
			L680.5,640.5z"/>
	</g>
	<g>
		<path class="st1" d="M666.1,382.5c-4.3,0-8.5,0-12.8,0"/>
		<path class="st1" d="M666.1,376c-4.3,0-8.5,0-12.8,0c-8.4,0-8.4,13,0,13c4.3,0,8.5,0,12.8,0C674.4,389,674.4,376,666.1,376
			L666.1,376z"/>
	</g>
	<g>
		<path class="st4" d="M670.5,324.3c-5-1.2-10.1-1.8-15.2-1.7"/>
		<path class="st4" d="M672.2,318c-5.6-1.3-11.2-2-16.9-2c-8.4,0-8.4,13,0,13c4.6,0,9,0.4,13.5,1.5
			C676.9,332.5,680.3,319.9,672.2,318L672.2,318z"/>
	</g>
	<g>
		<path class="st0" d="M446.5,749.3c-1.9,1.4-4.5,0.3-6.8,0.2c-2.3-0.1-5.2,2.4-3.6,4.1"/>
		<path class="st0" d="M443.3,743.7c0.3-0.1,0.7-0.2,1-0.2c-0.4,0-0.9,0-1.3-0.1c0.6,0.1,0.6,0.1-0.2-0.1c-0.8-0.1-1.6-0.2-2.4-0.3
			c-2.2-0.2-4.3,0.3-6.2,1.4c-4.2,2.3-6.8,8.1-3.7,12.4c2.1,2.8,5.6,4.2,8.9,2.3c2.8-1.6,4.4-6,2.3-8.9c0.1,1.1,0.2,2.3,0.3,3.4
			c-0.2,0.9-0.6,1.5-1.2,1.9c-0.2,0.1-1.2,0.5-0.6,0.3c1-0.2-1,0.2-0.9,0c0-0.1,1.5,0.2,1.6,0.3c3.2,0.4,6.1,0.5,8.9-1.3
			c3-1.8,4.1-5.8,2.3-8.9C450.4,743,446.3,741.9,443.3,743.7L443.3,743.7z"/>
	</g>
	<g>
		<path class="st0" d="M479,665.6c1.4-0.5,2.9-1.1,4.3-1.6c0.7,1,1,2.2,0.8,3.4"/>
		<path class="st0" d="M480.7,671.8c1.4-0.5,2.9-1.1,4.3-1.6c-2.4-1-4.9-2-7.3-3c0.2,0.3,0.4,0.5,0.5,0.8c-0.2-0.5-0.4-1-0.7-1.6
			c0.2,0.4,0.3,0.8,0.3,1.3c-0.1-0.6-0.2-1.2-0.2-1.7c0,0.3,0,0.6,0,1c0.1-0.6,0.2-1.2,0.2-1.7c0,0.1,0,0.2-0.1,0.3
			c-0.3,1.8-0.3,3.4,0.7,5c0.8,1.3,2.3,2.6,3.9,3c3.2,0.7,7.4-1,8-4.5c0.5-2.9,0.3-5.9-1.4-8.4c-0.8-1.2-1.7-2.1-3.1-2.7
			c-1.2-0.5-2.9-0.8-4.2-0.3c-1.4,0.5-2.9,1.1-4.3,1.6c-1.6,0.6-3,1.4-3.9,3c-0.8,1.4-1.2,3.4-0.7,5
			C473.7,670.4,477.3,673.1,480.7,671.8L480.7,671.8z"/>
	</g>
	<g>
		<path class="st0" d="M811.4,872.3c-4.3,0-8.5,0-12.8,0"/>
		<path class="st0" d="M811.4,865.8c-4.3,0-8.5,0-12.8,0c-8.4,0-8.4,13,0,13c4.3,0,8.5,0,12.8,0
			C819.8,878.8,819.8,865.8,811.4,865.8L811.4,865.8z"/>
	</g>
	<g>
		<path class="st0" d="M721.3,926.7c2.3,0,4.5,0,6.8,0"/>
		<path class="st0" d="M721.3,933.2c2.3,0,4.5,0,6.8,0c3.4,0,6.7-3,6.5-6.5c-0.2-3.5-2.9-6.5-6.5-6.5c-2.3,0-4.5,0-6.8,0
			c-3.4,0-6.7,3-6.5,6.5C715,930.2,717.7,933.2,721.3,933.2L721.3,933.2z"/>
	</g>
	<g>
		<path class="st7" d="M680.6,955.5c1.4,0.9,2.8,1.7,4.2,2.6"/>
		<path class="st7" d="M677.3,961.1c1.4,0.9,2.8,1.7,4.2,2.6c2.9,1.8,7.3,0.7,8.9-2.3c1.7-3.2,0.8-7-2.3-8.9
			c-1.4-0.9-2.8-1.7-4.2-2.6c-2.9-1.8-7.3-0.7-8.9,2.3C673.3,955.4,674.2,959.2,677.3,961.1L677.3,961.1z"/>
	</g>
	<g>
		<path class="st7" d="M758.7,922.4c-1.7,0.1-3.4,1.1-4.2,2.6"/>
		<path class="st7" d="M758.7,915.9c-4,0.3-7.8,2.2-9.8,5.8c-1.7,3-0.8,7.2,2.3,8.9c3.1,1.6,7.1,0.8,8.9-2.3
			c0.1-0.2,0.3-0.4,0.4-0.6c-0.3,0.4-0.7,0.9-1,1.3c0.3-0.3,0.5-0.6,0.9-0.9c-0.4,0.3-0.9,0.7-1.3,1c0.4-0.3,0.8-0.5,1.3-0.8
			c-0.5,0.2-1,0.4-1.6,0.7c0.4-0.1,0.8-0.3,1.2-0.3c-0.6,0.1-1.2,0.2-1.7,0.2c0.2,0,0.3,0,0.5,0c1.7-0.1,3.3-0.6,4.6-1.9
			c1.1-1.1,2-3,1.9-4.6c-0.1-1.7-0.6-3.4-1.9-4.6C762.1,916.7,760.4,915.8,758.7,915.9L758.7,915.9z"/>
	</g>
	<g>
		<path class="st7" d="M550.4,951.3c-1.3,3.5-3.6,6.6-6.4,8.9"/>
		<path class="st7" d="M544.1,949.6C544.3,949,544.3,949.2,544.1,949.6c-0.2,0.4-0.4,0.8-0.6,1.1c-0.4,0.8-0.9,1.5-1.4,2.2
			c-0.5,0.8,0.6-0.6-0.1,0.1c-0.3,0.3-0.5,0.6-0.8,0.9c-0.6,0.6-1.2,1.2-1.9,1.8c-2.6,2.2-2.4,6.9,0,9.2c2.8,2.5,6.4,2.4,9.2,0
			c3.8-3.2,6.3-7.3,8.1-11.8c1.3-3.2-1.4-7.3-4.5-8C548.3,944.2,545.4,946.2,544.1,949.6L544.1,949.6z"/>
	</g>
	<g>
		<path class="st7" d="M609.1,890.1c-2.3,0-4.5,0-6.8,0"/>
		<path class="st7" d="M609.1,883.6c-2.3,0-4.5,0-6.8,0c-3.4,0-6.7,3-6.5,6.5c0.2,3.5,2.9,6.5,6.5,6.5c2.3,0,4.5,0,6.8,0
			c3.4,0,6.7-3,6.5-6.5C615.4,886.6,612.7,883.6,609.1,883.6L609.1,883.6z"/>
	</g>
	<g>
		<path class="st7" d="M607.4,952.3c-0.8,0-1.6-0.1-2.5-0.1c-1.1-2.7,2.2-6,4.9-4.9"/>
		<path class="st7" d="M607.4,945.8c-0.8,0-1.6-0.1-2.5-0.1c2.1,1.6,4.2,3.2,6.3,4.8c-0.1-0.2-0.1-0.4-0.2-0.7
			c0.1,0.6,0.2,1.2,0.2,1.7c0-0.3,0-0.6,0-0.9c-0.1,0.6-0.2,1.2-0.2,1.7c0.1-0.3,0.1-0.6,0.3-0.9c-0.2,0.5-0.4,1-0.7,1.6
			c0.1-0.3,0.3-0.6,0.5-0.8c-0.3,0.4-0.7,0.9-1,1.3c0.3-0.3,0.5-0.6,0.8-0.9c-0.4,0.3-0.9,0.7-1.3,1c0.3-0.2,0.7-0.4,1-0.6
			c-0.5,0.2-1,0.4-1.6,0.7c0.3-0.1,0.6-0.2,0.9-0.2c-0.6,0.1-1.2,0.2-1.7,0.2c0.3,0,0.6,0,0.9,0c-0.6-0.1-1.2-0.2-1.7-0.2
			c0.2,0,0.5,0.1,0.7,0.2c1.5,0.6,3.7,0.1,5-0.7c1.3-0.8,2.6-2.3,3-3.9c0.4-1.7,0.3-3.5-0.7-5c-1-1.5-2.2-2.4-3.9-3
			c-3.5-1.3-7.7,0.1-10.2,2.6c-2.6,2.5-4,6.7-2.7,10.2c1,2.9,3.2,4.6,6.3,4.8c0.8,0,1.6,0.1,2.5,0.1c3.4,0.2,6.7-3.1,6.5-6.5
			C613.7,948.6,611,946,607.4,945.8L607.4,945.8z"/>
	</g>
	<g>
		<path class="st7" d="M505.4,938.6c-1.7,0-3.4,0-5.1,0"/>
		<path class="st7" d="M505.4,932.1c-1.7,0-3.4,0-5.1,0c-3.4,0-6.7,3-6.5,6.5c0.2,3.5,2.9,6.5,6.5,6.5c1.7,0,3.4,0,5.1,0
			c3.4,0,6.7-3,6.5-6.5C511.7,935.1,509,932.1,505.4,932.1L505.4,932.1z"/>
	</g>
	<g>
		<path class="st7" d="M529.2,903.7"/>
		<g>
			<path class="st7" d="M529.2,910.2c8.4,0,8.4-13,0-13C520.8,897.2,520.8,910.2,529.2,910.2L529.2,910.2z"/>
		</g>
	</g>
	<g>
		<path class="st1" d="M851.4,796.6c-1.7,0-3.4,0-5.1,0"/>
		<path class="st1" d="M851.4,790.1c-1.7,0-3.4,0-5.1,0c-3.4,0-6.7,3-6.5,6.5c0.2,3.5,2.9,6.5,6.5,6.5c1.7,0,3.4,0,5.1,0
			c3.4,0,6.7-3,6.5-6.5C857.8,793.1,855.1,790.1,851.4,790.1L851.4,790.1z"/>
	</g>
	<g>
		<path class="st0" d="M862.5,681.8c0-1.7,0-3.4,0-5.1"/>
		<path class="st0" d="M869,681.8c0-1.7,0-3.4,0-5.1c0-3.4-3-6.7-6.5-6.5c-3.5,0.2-6.5,2.9-6.5,6.5c0,1.7,0,3.4,0,5.1
			c0,3.4,3,6.7,6.5,6.5C866,688.2,869,685.5,869,681.8L869,681.8z"/>
	</g>
	<g>
		<path class="st7" d="M761.8,489.1c1.8,2.5-0.8,6.8-3.9,6.3"/>
		<path class="st7" d="M756.2,492.4c0.6,0.9-0.4-1.5-0.2-0.5c0.3,1.1-0.1-1.8-0.1-0.6c0.2-1.2,0.2-1.6,0.1-1c0,0.1-0.1,0.3-0.1,0.4
			c0-0.7,0.6-1.5,0.2-0.5c-0.5,0.9,1.1-1.2,0.3-0.4c-0.7,0.7,1.4-0.9,0.4-0.3c-0.9,0.5,1.4-0.5,0.7-0.3c-0.5,0.1-0.2,0.1,1-0.1
			c-0.2,0-0.4,0-0.6,0c-3.4-0.4-6.6,3.2-6.5,6.5c0.2,3.8,2.9,6.1,6.5,6.5c3.8,0.4,7.5-2.1,9.4-5.2c2-3.2,2.2-7.6,0.1-10.8
			c-1.9-2.8-5.8-4.3-8.9-2.3C755.7,485.3,754.2,489.3,756.2,492.4L756.2,492.4z"/>
	</g>
	<g>
		<path class="st7" d="M698.3,479.6c-1.4-0.5-3.1-0.3-4.3,0.6"/>
		<path class="st7" d="M700.1,473.3c-3-1-6.7-0.5-9.3,1.3c-1.4,1-2.5,2.2-3,3.9c-0.4,1.6-0.2,3.6,0.7,5c0.9,1.4,2.2,2.6,3.9,3
			c1.6,0.4,3.6,0.3,5-0.7c0.3-0.2,0.6-0.4,0.9-0.5c-0.5,0.2-1,0.4-1.6,0.7c0.4-0.2,0.8-0.3,1.3-0.3c-0.6,0.1-1.2,0.2-1.7,0.2
			c0.4,0,0.7,0,1.1,0c-0.6-0.1-1.2-0.2-1.7-0.2c0.4,0,0.7,0.1,1,0.2c3.2,1.1,7.2-1.2,8-4.5C705.4,477.7,703.5,474.4,700.1,473.3
			L700.1,473.3z"/>
	</g>
	<g>
		<path class="st7" d="M606.6,465.1c-2.3,1.7-4.5,3.4-6.8,5.1"/>
		<path class="st7" d="M603.3,459.5c-2.3,1.7-4.5,3.4-6.8,5.1c-1.4,1.1-2.5,2.1-3,3.9c-0.4,1.6-0.2,3.6,0.7,5c1.7,2.7,6,4.5,8.9,2.3
			c2.3-1.7,4.5-3.4,6.8-5.1c1.4-1.1,2.5-2.1,3-3.9c0.4-1.6,0.2-3.6-0.7-5C610.5,459.2,606.2,457.3,603.3,459.5L603.3,459.5z"/>
	</g>
	<g>
		<path class="st3" d="M572.5,436.1c-2.6,0-5.1,0-7.7,0"/>
		<path class="st3" d="M572.5,429.6c-2.6,0-5.1,0-7.7,0c-3.4,0-6.7,3-6.5,6.5c0.2,3.5,2.9,6.5,6.5,6.5c2.6,0,5.1,0,7.7,0
			c3.4,0,6.7-3,6.5-6.5C578.9,432.6,576.2,429.6,572.5,429.6L572.5,429.6z"/>
	</g>
	<g>
		<path class="st2" d="M609.1,339.2c-1.4,0-2.8,0-4.3,0"/>
		<path class="st2" d="M609.1,332.7c-1.4,0-2.8,0-4.3,0c-3.4,0-6.7,3-6.5,6.5c0.2,3.5,2.9,6.5,6.5,6.5c1.4,0,2.8,0,4.3,0
			c3.4,0,6.7-3,6.5-6.5C615.4,335.7,612.7,332.7,609.1,332.7L609.1,332.7z"/>
	</g>
	<g>
		<path class="st2" d="M626.4,284.8c0,2,0,4,0,6"/>
		<path class="st2" d="M619.9,284.8c0,2,0,4,0,6c0,3.4,3,6.7,6.5,6.5c3.5-0.2,6.5-2.9,6.5-6.5c0-2,0-4,0-6c0-3.4-3-6.7-6.5-6.5
			C622.9,278.4,619.9,281.1,619.9,284.8L619.9,284.8z"/>
	</g>
	<g>
		<path class="st2" d="M709.2,357.4"/>
		<g>
			<path class="st2" d="M709.2,363.9c8.4,0,8.4-13,0-13C700.8,350.9,700.8,363.9,709.2,363.9L709.2,363.9z"/>
		</g>
	</g>
	<g>
		<path class="st4" d="M622.5,316.7"/>
		<g>
			<path class="st4" d="M622.5,323.2c8.4,0,8.4-13,0-13C614.1,310.2,614.1,323.2,622.5,323.2L622.5,323.2z"/>
		</g>
	</g>
	<g>
		<path class="st0" d="M596.7,302.1"/>
		<g>
			<path class="st0" d="M596.7,308.6c8.4,0,8.4-13,0-13C588.4,295.6,588.3,308.6,596.7,308.6L596.7,308.6z"/>
		</g>
	</g>
	<g>
		<path class="st1" d="M608.5,268.3"/>
		<g>
			<path class="st1" d="M608.5,274.8c8.4,0,8.4-13,0-13C600.2,261.8,600.2,274.8,608.5,274.8L608.5,274.8z"/>
		</g>
	</g>
	<g>
		<path class="st1" d="M599.3,282"/>
		<g>
			<path class="st1" d="M599.3,285.2c4.2,0,4.2-6.5,0-6.5C595.1,278.7,595.1,285.2,599.3,285.2L599.3,285.2z"/>
		</g>
	</g>
	<g>
		<path class="st4" d="M591.1,270.5"/>
		<g>
			<path class="st4" d="M591.1,277c8.4,0,8.4-13,0-13C582.7,264,582.7,277,591.1,277L591.1,277z"/>
		</g>
	</g>
	<g>
		<path class="st2" d="M616.1,531.3"/>
		<g>
			<path class="st2" d="M616.1,537.8c8.4,0,8.4-13,0-13C607.7,524.8,607.7,537.8,616.1,537.8L616.1,537.8z"/>
		</g>
	</g>
	<g>
		<path class="st2" d="M699.8,564.1"/>
		<g>
			<path class="st2" d="M699.8,570.6c8.4,0,8.4-13,0-13C691.5,557.6,691.4,570.6,699.8,570.6L699.8,570.6z"/>
		</g>
	</g>
	<g>
		<path class="st4" d="M540.2,552.6"/>
		<g>
			<path class="st4" d="M540.2,559.1c8.4,0,8.4-13,0-13C531.8,546.1,531.8,559.1,540.2,559.1L540.2,559.1z"/>
		</g>
	</g>
	<g>
		<path class="st4" d="M627.6,641.6"/>
		<g>
			<path class="st4" d="M627.6,648.1c8.4,0,8.4-13,0-13C619.2,635.1,619.2,648.1,627.6,648.1L627.6,648.1z"/>
		</g>
	</g>
	<g>
		<path class="st2" d="M730.8,689.1"/>
		<g>
			<path class="st2" d="M730.8,695.6c8.4,0,8.4-13,0-13C722.5,682.6,722.4,695.6,730.8,695.6L730.8,695.6z"/>
		</g>
	</g>
	<g>
		<path class="st2" d="M752.6,637.6"/>
		<g>
			<path class="st2" d="M752.6,644.1c8.4,0,8.4-13,0-13C744.2,631.1,744.2,644.1,752.6,644.1L752.6,644.1z"/>
		</g>
	</g>
	<g>
		<path class="st0" d="M644.4,739"/>
		<g>
			<path class="st0" d="M644.4,745.5c8.4,0,8.4-13,0-13C636.1,732.5,636,745.5,644.4,745.5L644.4,745.5z"/>
		</g>
	</g>
	<g>
		<path class="st0" d="M498.9,775"/>
		<g>
			<path class="st0" d="M498.9,781.5c8.4,0,8.4-13,0-13C490.6,768.5,490.6,781.5,498.9,781.5L498.9,781.5z"/>
		</g>
	</g>
	<g>
		<path class="st3" d="M607.4,975"/>
		<g>
			<path class="st3" d="M607.4,981.5c8.4,0,8.4-13,0-13C599,968.5,599,981.5,607.4,981.5L607.4,981.5z"/>
		</g>
	</g>
	<g>
		<path class="st7" d="M618.9,997.2"/>
		<g>
			<path class="st7" d="M618.9,1003.7c8.4,0,8.4-13,0-13C610.5,990.7,610.5,1003.7,618.9,1003.7L618.9,1003.7z"/>
		</g>
	</g>
	<g>
		<path class="st3" d="M590.4,965.7"/>
		<g>
			<path class="st3" d="M590.4,969c4.2,0,4.2-6.5,0-6.5C586.2,962.5,586.2,969,590.4,969L590.4,969z"/>
		</g>
	</g>
	<g>
		<path class="st3" d="M597.7,992.4"/>
		<g>
			<path class="st3" d="M597.7,995.7c4.2,0,4.2-6.5,0-6.5C593.5,989.2,593.5,995.7,597.7,995.7L597.7,995.7z"/>
		</g>
	</g>
	<g>
		<path class="st7" d="M576.4,980.6"/>
		<g>
			<path class="st7" d="M576.4,987.1c8.4,0,8.4-13,0-13C568,974.1,568,987.1,576.4,987.1L576.4,987.1z"/>
		</g>
	</g>
	<g>
		<path class="st6" d="M578.3,952.7"/>
		<g>
			<path class="st6" d="M578.3,959.2c8.4,0,8.4-13,0-13C570,946.2,570,959.2,578.3,959.2L578.3,959.2z"/>
		</g>
	</g>
	<g>
		<path class="st6" d="M580.7,922.5"/>
		<g>
			<path class="st6" d="M580.7,929c8.4,0,8.4-13,0-13C572.4,916,572.3,929,580.7,929L580.7,929z"/>
		</g>
	</g>
	<g>
		<path class="st6" d="M541.6,926"/>
		<g>
			<path class="st6" d="M541.6,932.5c8.4,0,8.4-13,0-13C533.2,919.5,533.2,932.5,541.6,932.5L541.6,932.5z"/>
		</g>
	</g>
	<g>
		<path class="st6" d="M614.3,923.8"/>
		<g>
			<path class="st6" d="M614.3,930.3c8.4,0,8.4-13,0-13C605.9,917.3,605.9,930.3,614.3,930.3L614.3,930.3z"/>
		</g>
	</g>
	<g>
		<path class="st6" d="M503.7,878.3"/>
		<g>
			<path class="st6" d="M503.7,884.8c8.4,0,8.4-13,0-13C495.4,871.8,495.4,884.8,503.7,884.8L503.7,884.8z"/>
		</g>
	</g>
	<g>
		<path class="st2" d="M847.7,580.4"/>
		<g>
			<path class="st2" d="M847.7,582.9c3.2,0,3.2-5,0-5C844.5,577.9,844.5,582.9,847.7,582.9L847.7,582.9z"/>
		</g>
	</g>
	<g>
		<path class="st2" d="M843.1,580.4"/>
		<g>
			<path class="st2" d="M843.1,582.9c3.2,0,3.2-5,0-5C839.9,577.9,839.9,582.9,843.1,582.9L843.1,582.9z"/>
		</g>
	</g>
	<g>
		<path class="st2" d="M832.3,570.1"/>
		<g>
			<path class="st2" d="M832.3,572.6c3.2,0,3.2-5,0-5C829,567.6,829,572.6,832.3,572.6L832.3,572.6z"/>
		</g>
	</g>
	<g>
		<path class="st2" d="M830.7,551.4"/>
		<g>
			<path class="st2" d="M830.7,553.9c3.2,0,3.2-5,0-5C827.5,548.9,827.5,553.9,830.7,553.9L830.7,553.9z"/>
		</g>
	</g>
	<g>
		<path class="st1" d="M829,604.2"/>
		<g>
			<path class="st1" d="M829,606.7c3.2,0,3.2-5,0-5C825.8,601.7,825.7,606.7,829,606.7L829,606.7z"/>
		</g>
	</g>
	<g>
		<path class="st4" d="M859.1,611.8"/>
		<g>
			<path class="st4" d="M859.1,614.3c3.2,0,3.2-5,0-5C855.9,609.3,855.9,614.3,859.1,614.3L859.1,614.3z"/>
		</g>
	</g>
	<g>
		<path class="st4" d="M846.6,626.1"/>
		<g>
			<path class="st4" d="M846.6,628.6c3.2,0,3.2-5,0-5C843.4,623.6,843.4,628.6,846.6,628.6L846.6,628.6z"/>
		</g>
	</g>
	<g>
		<path class="st1" d="M859.7,708.3"/>
		<g>
			<path class="st1" d="M859.7,710.8c3.2,0,3.2-5,0-5C856.5,705.8,856.5,710.8,859.7,710.8L859.7,710.8z"/>
		</g>
	</g>
	<g>
		<path class="st6" d="M833.9,730.5"/>
		<g>
			<path class="st6" d="M833.9,733c3.2,0,3.2-5,0-5C830.7,728,830.7,733,833.9,733L833.9,733z"/>
		</g>
	</g>
	<g>
		<path class="st3" d="M862.9,821.8"/>
		<g>
			<path class="st3" d="M862.9,824.3c3.2,0,3.2-5,0-5C859.7,819.3,859.7,824.3,862.9,824.3L862.9,824.3z"/>
		</g>
	</g>
	<g>
		<path class="st1" d="M848.4,842"/>
		<g>
			<path class="st1" d="M848.4,844.5c3.2,0,3.2-5,0-5C845.2,839.5,845.2,844.5,848.4,844.5L848.4,844.5z"/>
		</g>
	</g>
	<g>
		<path class="st6" d="M809.8,832.9"/>
		<g>
			<path class="st6" d="M809.8,835.4c3.2,0,3.2-5,0-5C806.6,830.4,806.6,835.4,809.8,835.4L809.8,835.4z"/>
		</g>
	</g>
	<g>
		<path class="st6" d="M742.8,800.6"/>
		<g>
			<path class="st6" d="M742.8,803.1c3.2,0,3.2-5,0-5C739.6,798.1,739.6,803.1,742.8,803.1L742.8,803.1z"/>
		</g>
	</g>
	<g>
		<path class="st6" d="M715.5,828.5"/>
		<g>
			<path class="st6" d="M715.5,831c3.2,0,3.2-5,0-5C712.3,826,712.3,831,715.5,831L715.5,831z"/>
		</g>
	</g>
	<g>
		<path class="st6" d="M762,891.5"/>
		<g>
			<path class="st6" d="M762,894c3.2,0,3.2-5,0-5C758.8,889,758.8,894,762,894L762,894z"/>
		</g>
	</g>
	<g>
		<path class="st3" d="M741,883"/>
		<g>
			<path class="st3" d="M741,885.5c3.2,0,3.2-5,0-5C737.8,880.5,737.8,885.5,741,885.5L741,885.5z"/>
		</g>
	</g>
	<g>
		<path class="st6" d="M687.7,892.6c-0.3,0.4-0.6,0.9-1.1,1.2"/>
		<path class="st6" d="M685.5,891.3c-0.1,0.1-0.1,0.2-0.2,0.3c0.1-0.2,0.3-0.4,0-0.1c-0.2,0.2-0.3,0.3-0.5,0.5c-1,0.9-1,2.7,0,3.5
			c1,1,2.5,0.9,3.5,0c0.6-0.5,1-1.1,1.4-1.7c0.7-1.1,0.2-2.8-0.9-3.4C687.7,889.8,686.3,890.2,685.5,891.3L685.5,891.3z"/>
	</g>
	<g>
		<path class="st6" d="M696,918.6"/>
		<g>
			<path class="st6" d="M696,921.1c3.2,0,3.2-5,0-5C692.8,916.1,692.8,921.1,696,921.1L696,921.1z"/>
		</g>
	</g>
	<g>
		<path class="st6" d="M696,918.6"/>
		<g>
			<path class="st6" d="M696,921.1c3.2,0,3.2-5,0-5C692.8,916.1,692.8,921.1,696,921.1L696,921.1z"/>
		</g>
	</g>
	<g>
		<path class="st6" d="M677.6,931.3c0-0.3-0.2-0.6-0.4-0.9"/>
		<path class="st6" d="M680,930.6c-0.1-0.8-0.6-1.4-1-2c-0.4-0.5-1.2-0.7-1.8-0.7c-0.6,0-1.3,0.3-1.8,0.7c-0.4,0.5-0.8,1.1-0.7,1.8
			c0,0.7,0.3,1.2,0.7,1.8c-0.2-0.1-0.3-0.3-0.3-0.5c0,0.1,0.1,0.2,0.1,0.3c0.1,0.6,0.7,1.2,1.1,1.5c0.5,0.3,1.3,0.4,1.9,0.3
			C679.6,933.2,680.2,932,680,930.6L680,930.6z"/>
	</g>
	<g>
		<path class="st6" d="M709.9,961.9c-0.3,0.1-0.6,0.3-0.8,0.6"/>
		<path class="st6" d="M708.6,959.8c-0.5,0.2-1,0.6-1.3,1c-0.9,1-1,2.6,0,3.5c0.9,0.9,2.6,1,3.5,0c0-0.1,0.1-0.1,0.2-0.2
			c0.1-0.1,0.1-0.1-0.2,0.2c0.1,0,0.3-0.2,0.4-0.2c1.2-0.6,1.6-2.4,0.9-3.4C711.3,959.5,709.9,959.2,708.6,959.8L708.6,959.8z"/>
	</g>
	<g>
		<path class="st3" d="M677.4,982.2c0-0.5,0-1.1,0-1.6"/>
		<path class="st3" d="M679.9,982.2c0-0.5,0-1.1,0-1.6c0-1.3-1.1-2.6-2.5-2.5c-1.4,0.1-2.5,1.1-2.5,2.5c0,0.5,0,1.1,0,1.6
			c0,1.3,1.1,2.6,2.5,2.5C678.8,984.6,679.9,983.6,679.9,982.2L679.9,982.2z"/>
	</g>
	<g>
		<path class="st0" d="M586.6,253.2"/>
		<g>
			<path class="st0" d="M586.6,255.7c3.2,0,3.2-5,0-5C583.4,250.7,583.4,255.7,586.6,255.7L586.6,255.7z"/>
		</g>
	</g>
</g>
</svg>
